%TF.GenerationSoftware,KiCad,Pcbnew,8.0.5*%
%TF.CreationDate,2025-07-05T11:02:35+01:00*%
%TF.ProjectId,sdrr wifi rev a,73647272-2077-4696-9669-207265762061,rev?*%
%TF.SameCoordinates,Original*%
%TF.FileFunction,Legend,Bot*%
%TF.FilePolarity,Positive*%
%FSLAX46Y46*%
G04 Gerber Fmt 4.6, Leading zero omitted, Abs format (unit mm)*
G04 Created by KiCad (PCBNEW 8.0.5) date 2025-07-05 11:02:35*
%MOMM*%
%LPD*%
G01*
G04 APERTURE LIST*
%ADD10C,0.100000*%
%ADD11C,0.150000*%
G04 APERTURE END LIST*
D10*
X60766266Y-67755633D02*
X60999599Y-67422300D01*
X61166266Y-67755633D02*
X61166266Y-67055633D01*
X61166266Y-67055633D02*
X60899599Y-67055633D01*
X60899599Y-67055633D02*
X60832933Y-67088966D01*
X60832933Y-67088966D02*
X60799599Y-67122300D01*
X60799599Y-67122300D02*
X60766266Y-67188966D01*
X60766266Y-67188966D02*
X60766266Y-67288966D01*
X60766266Y-67288966D02*
X60799599Y-67355633D01*
X60799599Y-67355633D02*
X60832933Y-67388966D01*
X60832933Y-67388966D02*
X60899599Y-67422300D01*
X60899599Y-67422300D02*
X61166266Y-67422300D01*
X60532933Y-67055633D02*
X60066266Y-67755633D01*
X60066266Y-67055633D02*
X60532933Y-67755633D01*
X59799599Y-67755633D02*
X59799599Y-67055633D01*
X59799599Y-67055633D02*
X59632932Y-67055633D01*
X59632932Y-67055633D02*
X59532932Y-67088966D01*
X59532932Y-67088966D02*
X59466266Y-67155633D01*
X59466266Y-67155633D02*
X59432932Y-67222300D01*
X59432932Y-67222300D02*
X59399599Y-67355633D01*
X59399599Y-67355633D02*
X59399599Y-67455633D01*
X59399599Y-67455633D02*
X59432932Y-67588966D01*
X59432932Y-67588966D02*
X59466266Y-67655633D01*
X59466266Y-67655633D02*
X59532932Y-67722300D01*
X59532932Y-67722300D02*
X59632932Y-67755633D01*
X59632932Y-67755633D02*
X59799599Y-67755633D01*
X55378999Y-69508233D02*
X55378999Y-68808233D01*
X55378999Y-68808233D02*
X54978999Y-69508233D01*
X54978999Y-69508233D02*
X54978999Y-68808233D01*
X54245666Y-69508233D02*
X54478999Y-69174900D01*
X54645666Y-69508233D02*
X54645666Y-68808233D01*
X54645666Y-68808233D02*
X54378999Y-68808233D01*
X54378999Y-68808233D02*
X54312333Y-68841566D01*
X54312333Y-68841566D02*
X54278999Y-68874900D01*
X54278999Y-68874900D02*
X54245666Y-68941566D01*
X54245666Y-68941566D02*
X54245666Y-69041566D01*
X54245666Y-69041566D02*
X54278999Y-69108233D01*
X54278999Y-69108233D02*
X54312333Y-69141566D01*
X54312333Y-69141566D02*
X54378999Y-69174900D01*
X54378999Y-69174900D02*
X54645666Y-69174900D01*
X53978999Y-69474900D02*
X53878999Y-69508233D01*
X53878999Y-69508233D02*
X53712333Y-69508233D01*
X53712333Y-69508233D02*
X53645666Y-69474900D01*
X53645666Y-69474900D02*
X53612333Y-69441566D01*
X53612333Y-69441566D02*
X53578999Y-69374900D01*
X53578999Y-69374900D02*
X53578999Y-69308233D01*
X53578999Y-69308233D02*
X53612333Y-69241566D01*
X53612333Y-69241566D02*
X53645666Y-69208233D01*
X53645666Y-69208233D02*
X53712333Y-69174900D01*
X53712333Y-69174900D02*
X53845666Y-69141566D01*
X53845666Y-69141566D02*
X53912333Y-69108233D01*
X53912333Y-69108233D02*
X53945666Y-69074900D01*
X53945666Y-69074900D02*
X53978999Y-69008233D01*
X53978999Y-69008233D02*
X53978999Y-68941566D01*
X53978999Y-68941566D02*
X53945666Y-68874900D01*
X53945666Y-68874900D02*
X53912333Y-68841566D01*
X53912333Y-68841566D02*
X53845666Y-68808233D01*
X53845666Y-68808233D02*
X53678999Y-68808233D01*
X53678999Y-68808233D02*
X53578999Y-68841566D01*
X53378999Y-68808233D02*
X52978999Y-68808233D01*
X53178999Y-69508233D02*
X53178999Y-68808233D01*
X57460266Y-69508233D02*
X57460266Y-68808233D01*
X57460266Y-68808233D02*
X57293599Y-68808233D01*
X57293599Y-68808233D02*
X57193599Y-68841566D01*
X57193599Y-68841566D02*
X57126933Y-68908233D01*
X57126933Y-68908233D02*
X57093599Y-68974900D01*
X57093599Y-68974900D02*
X57060266Y-69108233D01*
X57060266Y-69108233D02*
X57060266Y-69208233D01*
X57060266Y-69208233D02*
X57093599Y-69341566D01*
X57093599Y-69341566D02*
X57126933Y-69408233D01*
X57126933Y-69408233D02*
X57193599Y-69474900D01*
X57193599Y-69474900D02*
X57293599Y-69508233D01*
X57293599Y-69508233D02*
X57460266Y-69508233D01*
X56760266Y-69508233D02*
X56760266Y-68808233D01*
X56293600Y-68808233D02*
X56160266Y-68808233D01*
X56160266Y-68808233D02*
X56093600Y-68841566D01*
X56093600Y-68841566D02*
X56026933Y-68908233D01*
X56026933Y-68908233D02*
X55993600Y-69041566D01*
X55993600Y-69041566D02*
X55993600Y-69274900D01*
X55993600Y-69274900D02*
X56026933Y-69408233D01*
X56026933Y-69408233D02*
X56093600Y-69474900D01*
X56093600Y-69474900D02*
X56160266Y-69508233D01*
X56160266Y-69508233D02*
X56293600Y-69508233D01*
X56293600Y-69508233D02*
X56360266Y-69474900D01*
X56360266Y-69474900D02*
X56426933Y-69408233D01*
X56426933Y-69408233D02*
X56460266Y-69274900D01*
X56460266Y-69274900D02*
X56460266Y-69041566D01*
X56460266Y-69041566D02*
X56426933Y-68908233D01*
X56426933Y-68908233D02*
X56360266Y-68841566D01*
X56360266Y-68841566D02*
X56293600Y-68808233D01*
X59751066Y-69466966D02*
X59784399Y-69500300D01*
X59784399Y-69500300D02*
X59884399Y-69533633D01*
X59884399Y-69533633D02*
X59951066Y-69533633D01*
X59951066Y-69533633D02*
X60051066Y-69500300D01*
X60051066Y-69500300D02*
X60117733Y-69433633D01*
X60117733Y-69433633D02*
X60151066Y-69366966D01*
X60151066Y-69366966D02*
X60184399Y-69233633D01*
X60184399Y-69233633D02*
X60184399Y-69133633D01*
X60184399Y-69133633D02*
X60151066Y-69000300D01*
X60151066Y-69000300D02*
X60117733Y-68933633D01*
X60117733Y-68933633D02*
X60051066Y-68866966D01*
X60051066Y-68866966D02*
X59951066Y-68833633D01*
X59951066Y-68833633D02*
X59884399Y-68833633D01*
X59884399Y-68833633D02*
X59784399Y-68866966D01*
X59784399Y-68866966D02*
X59751066Y-68900300D01*
X59117733Y-69533633D02*
X59451066Y-69533633D01*
X59451066Y-69533633D02*
X59451066Y-68833633D01*
X58884399Y-69533633D02*
X58884399Y-68833633D01*
X58484399Y-69533633D02*
X58784399Y-69133633D01*
X58484399Y-68833633D02*
X58884399Y-69233633D01*
X59000344Y-64188566D02*
X58767011Y-64188566D01*
X58667011Y-64555233D02*
X59000344Y-64555233D01*
X59000344Y-64555233D02*
X59000344Y-63855233D01*
X59000344Y-63855233D02*
X58667011Y-63855233D01*
X58400344Y-64521900D02*
X58300344Y-64555233D01*
X58300344Y-64555233D02*
X58133678Y-64555233D01*
X58133678Y-64555233D02*
X58067011Y-64521900D01*
X58067011Y-64521900D02*
X58033678Y-64488566D01*
X58033678Y-64488566D02*
X58000344Y-64421900D01*
X58000344Y-64421900D02*
X58000344Y-64355233D01*
X58000344Y-64355233D02*
X58033678Y-64288566D01*
X58033678Y-64288566D02*
X58067011Y-64255233D01*
X58067011Y-64255233D02*
X58133678Y-64221900D01*
X58133678Y-64221900D02*
X58267011Y-64188566D01*
X58267011Y-64188566D02*
X58333678Y-64155233D01*
X58333678Y-64155233D02*
X58367011Y-64121900D01*
X58367011Y-64121900D02*
X58400344Y-64055233D01*
X58400344Y-64055233D02*
X58400344Y-63988566D01*
X58400344Y-63988566D02*
X58367011Y-63921900D01*
X58367011Y-63921900D02*
X58333678Y-63888566D01*
X58333678Y-63888566D02*
X58267011Y-63855233D01*
X58267011Y-63855233D02*
X58100344Y-63855233D01*
X58100344Y-63855233D02*
X58000344Y-63888566D01*
X57700344Y-64555233D02*
X57700344Y-63855233D01*
X57700344Y-63855233D02*
X57433677Y-63855233D01*
X57433677Y-63855233D02*
X57367011Y-63888566D01*
X57367011Y-63888566D02*
X57333677Y-63921900D01*
X57333677Y-63921900D02*
X57300344Y-63988566D01*
X57300344Y-63988566D02*
X57300344Y-64088566D01*
X57300344Y-64088566D02*
X57333677Y-64155233D01*
X57333677Y-64155233D02*
X57367011Y-64188566D01*
X57367011Y-64188566D02*
X57433677Y-64221900D01*
X57433677Y-64221900D02*
X57700344Y-64221900D01*
X56467011Y-64555233D02*
X56467011Y-63855233D01*
X56467011Y-63855233D02*
X56200344Y-63855233D01*
X56200344Y-63855233D02*
X56133678Y-63888566D01*
X56133678Y-63888566D02*
X56100344Y-63921900D01*
X56100344Y-63921900D02*
X56067011Y-63988566D01*
X56067011Y-63988566D02*
X56067011Y-64088566D01*
X56067011Y-64088566D02*
X56100344Y-64155233D01*
X56100344Y-64155233D02*
X56133678Y-64188566D01*
X56133678Y-64188566D02*
X56200344Y-64221900D01*
X56200344Y-64221900D02*
X56467011Y-64221900D01*
X55767011Y-64555233D02*
X55767011Y-64088566D01*
X55767011Y-64221900D02*
X55733678Y-64155233D01*
X55733678Y-64155233D02*
X55700344Y-64121900D01*
X55700344Y-64121900D02*
X55633678Y-64088566D01*
X55633678Y-64088566D02*
X55567011Y-64088566D01*
X55233678Y-64555233D02*
X55300345Y-64521900D01*
X55300345Y-64521900D02*
X55333678Y-64488566D01*
X55333678Y-64488566D02*
X55367011Y-64421900D01*
X55367011Y-64421900D02*
X55367011Y-64221900D01*
X55367011Y-64221900D02*
X55333678Y-64155233D01*
X55333678Y-64155233D02*
X55300345Y-64121900D01*
X55300345Y-64121900D02*
X55233678Y-64088566D01*
X55233678Y-64088566D02*
X55133678Y-64088566D01*
X55133678Y-64088566D02*
X55067011Y-64121900D01*
X55067011Y-64121900D02*
X55033678Y-64155233D01*
X55033678Y-64155233D02*
X55000345Y-64221900D01*
X55000345Y-64221900D02*
X55000345Y-64421900D01*
X55000345Y-64421900D02*
X55033678Y-64488566D01*
X55033678Y-64488566D02*
X55067011Y-64521900D01*
X55067011Y-64521900D02*
X55133678Y-64555233D01*
X55133678Y-64555233D02*
X55233678Y-64555233D01*
X54400345Y-64088566D02*
X54400345Y-64655233D01*
X54400345Y-64655233D02*
X54433678Y-64721900D01*
X54433678Y-64721900D02*
X54467012Y-64755233D01*
X54467012Y-64755233D02*
X54533678Y-64788566D01*
X54533678Y-64788566D02*
X54633678Y-64788566D01*
X54633678Y-64788566D02*
X54700345Y-64755233D01*
X54400345Y-64521900D02*
X54467012Y-64555233D01*
X54467012Y-64555233D02*
X54600345Y-64555233D01*
X54600345Y-64555233D02*
X54667012Y-64521900D01*
X54667012Y-64521900D02*
X54700345Y-64488566D01*
X54700345Y-64488566D02*
X54733678Y-64421900D01*
X54733678Y-64421900D02*
X54733678Y-64221900D01*
X54733678Y-64221900D02*
X54700345Y-64155233D01*
X54700345Y-64155233D02*
X54667012Y-64121900D01*
X54667012Y-64121900D02*
X54600345Y-64088566D01*
X54600345Y-64088566D02*
X54467012Y-64088566D01*
X54467012Y-64088566D02*
X54400345Y-64121900D01*
X60832932Y-62034366D02*
X60899599Y-62001033D01*
X60899599Y-62001033D02*
X60999599Y-62001033D01*
X60999599Y-62001033D02*
X61099599Y-62034366D01*
X61099599Y-62034366D02*
X61166266Y-62101033D01*
X61166266Y-62101033D02*
X61199599Y-62167700D01*
X61199599Y-62167700D02*
X61232932Y-62301033D01*
X61232932Y-62301033D02*
X61232932Y-62401033D01*
X61232932Y-62401033D02*
X61199599Y-62534366D01*
X61199599Y-62534366D02*
X61166266Y-62601033D01*
X61166266Y-62601033D02*
X61099599Y-62667700D01*
X61099599Y-62667700D02*
X60999599Y-62701033D01*
X60999599Y-62701033D02*
X60932932Y-62701033D01*
X60932932Y-62701033D02*
X60832932Y-62667700D01*
X60832932Y-62667700D02*
X60799599Y-62634366D01*
X60799599Y-62634366D02*
X60799599Y-62401033D01*
X60799599Y-62401033D02*
X60932932Y-62401033D01*
X60499599Y-62701033D02*
X60499599Y-62001033D01*
X60499599Y-62001033D02*
X60099599Y-62701033D01*
X60099599Y-62701033D02*
X60099599Y-62001033D01*
X59766266Y-62701033D02*
X59766266Y-62001033D01*
X59766266Y-62001033D02*
X59599599Y-62001033D01*
X59599599Y-62001033D02*
X59499599Y-62034366D01*
X59499599Y-62034366D02*
X59432933Y-62101033D01*
X59432933Y-62101033D02*
X59399599Y-62167700D01*
X59399599Y-62167700D02*
X59366266Y-62301033D01*
X59366266Y-62301033D02*
X59366266Y-62401033D01*
X59366266Y-62401033D02*
X59399599Y-62534366D01*
X59399599Y-62534366D02*
X59432933Y-62601033D01*
X59432933Y-62601033D02*
X59499599Y-62667700D01*
X59499599Y-62667700D02*
X59599599Y-62701033D01*
X59599599Y-62701033D02*
X59766266Y-62701033D01*
D11*
X62507094Y-52197800D02*
X62364237Y-52245419D01*
X62364237Y-52245419D02*
X62126142Y-52245419D01*
X62126142Y-52245419D02*
X62030904Y-52197800D01*
X62030904Y-52197800D02*
X61983285Y-52150180D01*
X61983285Y-52150180D02*
X61935666Y-52054942D01*
X61935666Y-52054942D02*
X61935666Y-51959704D01*
X61935666Y-51959704D02*
X61983285Y-51864466D01*
X61983285Y-51864466D02*
X62030904Y-51816847D01*
X62030904Y-51816847D02*
X62126142Y-51769228D01*
X62126142Y-51769228D02*
X62316618Y-51721609D01*
X62316618Y-51721609D02*
X62411856Y-51673990D01*
X62411856Y-51673990D02*
X62459475Y-51626371D01*
X62459475Y-51626371D02*
X62507094Y-51531133D01*
X62507094Y-51531133D02*
X62507094Y-51435895D01*
X62507094Y-51435895D02*
X62459475Y-51340657D01*
X62459475Y-51340657D02*
X62411856Y-51293038D01*
X62411856Y-51293038D02*
X62316618Y-51245419D01*
X62316618Y-51245419D02*
X62078523Y-51245419D01*
X62078523Y-51245419D02*
X61935666Y-51293038D01*
X61507094Y-52245419D02*
X61507094Y-51245419D01*
X61507094Y-51245419D02*
X61268999Y-51245419D01*
X61268999Y-51245419D02*
X61126142Y-51293038D01*
X61126142Y-51293038D02*
X61030904Y-51388276D01*
X61030904Y-51388276D02*
X60983285Y-51483514D01*
X60983285Y-51483514D02*
X60935666Y-51673990D01*
X60935666Y-51673990D02*
X60935666Y-51816847D01*
X60935666Y-51816847D02*
X60983285Y-52007323D01*
X60983285Y-52007323D02*
X61030904Y-52102561D01*
X61030904Y-52102561D02*
X61126142Y-52197800D01*
X61126142Y-52197800D02*
X61268999Y-52245419D01*
X61268999Y-52245419D02*
X61507094Y-52245419D01*
X59935666Y-52245419D02*
X60268999Y-51769228D01*
X60507094Y-52245419D02*
X60507094Y-51245419D01*
X60507094Y-51245419D02*
X60126142Y-51245419D01*
X60126142Y-51245419D02*
X60030904Y-51293038D01*
X60030904Y-51293038D02*
X59983285Y-51340657D01*
X59983285Y-51340657D02*
X59935666Y-51435895D01*
X59935666Y-51435895D02*
X59935666Y-51578752D01*
X59935666Y-51578752D02*
X59983285Y-51673990D01*
X59983285Y-51673990D02*
X60030904Y-51721609D01*
X60030904Y-51721609D02*
X60126142Y-51769228D01*
X60126142Y-51769228D02*
X60507094Y-51769228D01*
X58935666Y-52245419D02*
X59268999Y-51769228D01*
X59507094Y-52245419D02*
X59507094Y-51245419D01*
X59507094Y-51245419D02*
X59126142Y-51245419D01*
X59126142Y-51245419D02*
X59030904Y-51293038D01*
X59030904Y-51293038D02*
X58983285Y-51340657D01*
X58983285Y-51340657D02*
X58935666Y-51435895D01*
X58935666Y-51435895D02*
X58935666Y-51578752D01*
X58935666Y-51578752D02*
X58983285Y-51673990D01*
X58983285Y-51673990D02*
X59030904Y-51721609D01*
X59030904Y-51721609D02*
X59126142Y-51769228D01*
X59126142Y-51769228D02*
X59507094Y-51769228D01*
X57840427Y-51245419D02*
X57602332Y-52245419D01*
X57602332Y-52245419D02*
X57411856Y-51531133D01*
X57411856Y-51531133D02*
X57221380Y-52245419D01*
X57221380Y-52245419D02*
X56983285Y-51245419D01*
X56602332Y-52245419D02*
X56602332Y-51578752D01*
X56602332Y-51245419D02*
X56649951Y-51293038D01*
X56649951Y-51293038D02*
X56602332Y-51340657D01*
X56602332Y-51340657D02*
X56554713Y-51293038D01*
X56554713Y-51293038D02*
X56602332Y-51245419D01*
X56602332Y-51245419D02*
X56602332Y-51340657D01*
X55792809Y-51721609D02*
X56126142Y-51721609D01*
X56126142Y-52245419D02*
X56126142Y-51245419D01*
X56126142Y-51245419D02*
X55649952Y-51245419D01*
X55268999Y-52245419D02*
X55268999Y-51578752D01*
X55268999Y-51245419D02*
X55316618Y-51293038D01*
X55316618Y-51293038D02*
X55268999Y-51340657D01*
X55268999Y-51340657D02*
X55221380Y-51293038D01*
X55221380Y-51293038D02*
X55268999Y-51245419D01*
X55268999Y-51245419D02*
X55268999Y-51340657D01*
X54030904Y-52245419D02*
X54030904Y-51245419D01*
X54030904Y-51245419D02*
X53649952Y-51245419D01*
X53649952Y-51245419D02*
X53554714Y-51293038D01*
X53554714Y-51293038D02*
X53507095Y-51340657D01*
X53507095Y-51340657D02*
X53459476Y-51435895D01*
X53459476Y-51435895D02*
X53459476Y-51578752D01*
X53459476Y-51578752D02*
X53507095Y-51673990D01*
X53507095Y-51673990D02*
X53554714Y-51721609D01*
X53554714Y-51721609D02*
X53649952Y-51769228D01*
X53649952Y-51769228D02*
X54030904Y-51769228D01*
X53030904Y-52245419D02*
X53030904Y-51578752D01*
X53030904Y-51769228D02*
X52983285Y-51673990D01*
X52983285Y-51673990D02*
X52935666Y-51626371D01*
X52935666Y-51626371D02*
X52840428Y-51578752D01*
X52840428Y-51578752D02*
X52745190Y-51578752D01*
X52268999Y-52245419D02*
X52364237Y-52197800D01*
X52364237Y-52197800D02*
X52411856Y-52150180D01*
X52411856Y-52150180D02*
X52459475Y-52054942D01*
X52459475Y-52054942D02*
X52459475Y-51769228D01*
X52459475Y-51769228D02*
X52411856Y-51673990D01*
X52411856Y-51673990D02*
X52364237Y-51626371D01*
X52364237Y-51626371D02*
X52268999Y-51578752D01*
X52268999Y-51578752D02*
X52126142Y-51578752D01*
X52126142Y-51578752D02*
X52030904Y-51626371D01*
X52030904Y-51626371D02*
X51983285Y-51673990D01*
X51983285Y-51673990D02*
X51935666Y-51769228D01*
X51935666Y-51769228D02*
X51935666Y-52054942D01*
X51935666Y-52054942D02*
X51983285Y-52150180D01*
X51983285Y-52150180D02*
X52030904Y-52197800D01*
X52030904Y-52197800D02*
X52126142Y-52245419D01*
X52126142Y-52245419D02*
X52268999Y-52245419D01*
X51078523Y-51578752D02*
X51078523Y-52388276D01*
X51078523Y-52388276D02*
X51126142Y-52483514D01*
X51126142Y-52483514D02*
X51173761Y-52531133D01*
X51173761Y-52531133D02*
X51268999Y-52578752D01*
X51268999Y-52578752D02*
X51411856Y-52578752D01*
X51411856Y-52578752D02*
X51507094Y-52531133D01*
X51078523Y-52197800D02*
X51173761Y-52245419D01*
X51173761Y-52245419D02*
X51364237Y-52245419D01*
X51364237Y-52245419D02*
X51459475Y-52197800D01*
X51459475Y-52197800D02*
X51507094Y-52150180D01*
X51507094Y-52150180D02*
X51554713Y-52054942D01*
X51554713Y-52054942D02*
X51554713Y-51769228D01*
X51554713Y-51769228D02*
X51507094Y-51673990D01*
X51507094Y-51673990D02*
X51459475Y-51626371D01*
X51459475Y-51626371D02*
X51364237Y-51578752D01*
X51364237Y-51578752D02*
X51173761Y-51578752D01*
X51173761Y-51578752D02*
X51078523Y-51626371D01*
D10*
X63789599Y-67388966D02*
X63689599Y-67422300D01*
X63689599Y-67422300D02*
X63656265Y-67455633D01*
X63656265Y-67455633D02*
X63622932Y-67522300D01*
X63622932Y-67522300D02*
X63622932Y-67622300D01*
X63622932Y-67622300D02*
X63656265Y-67688966D01*
X63656265Y-67688966D02*
X63689599Y-67722300D01*
X63689599Y-67722300D02*
X63756265Y-67755633D01*
X63756265Y-67755633D02*
X64022932Y-67755633D01*
X64022932Y-67755633D02*
X64022932Y-67055633D01*
X64022932Y-67055633D02*
X63789599Y-67055633D01*
X63789599Y-67055633D02*
X63722932Y-67088966D01*
X63722932Y-67088966D02*
X63689599Y-67122300D01*
X63689599Y-67122300D02*
X63656265Y-67188966D01*
X63656265Y-67188966D02*
X63656265Y-67255633D01*
X63656265Y-67255633D02*
X63689599Y-67322300D01*
X63689599Y-67322300D02*
X63722932Y-67355633D01*
X63722932Y-67355633D02*
X63789599Y-67388966D01*
X63789599Y-67388966D02*
X64022932Y-67388966D01*
X63189599Y-67055633D02*
X63056265Y-67055633D01*
X63056265Y-67055633D02*
X62989599Y-67088966D01*
X62989599Y-67088966D02*
X62922932Y-67155633D01*
X62922932Y-67155633D02*
X62889599Y-67288966D01*
X62889599Y-67288966D02*
X62889599Y-67522300D01*
X62889599Y-67522300D02*
X62922932Y-67655633D01*
X62922932Y-67655633D02*
X62989599Y-67722300D01*
X62989599Y-67722300D02*
X63056265Y-67755633D01*
X63056265Y-67755633D02*
X63189599Y-67755633D01*
X63189599Y-67755633D02*
X63256265Y-67722300D01*
X63256265Y-67722300D02*
X63322932Y-67655633D01*
X63322932Y-67655633D02*
X63356265Y-67522300D01*
X63356265Y-67522300D02*
X63356265Y-67288966D01*
X63356265Y-67288966D02*
X63322932Y-67155633D01*
X63322932Y-67155633D02*
X63256265Y-67088966D01*
X63256265Y-67088966D02*
X63189599Y-67055633D01*
X62456266Y-67055633D02*
X62322932Y-67055633D01*
X62322932Y-67055633D02*
X62256266Y-67088966D01*
X62256266Y-67088966D02*
X62189599Y-67155633D01*
X62189599Y-67155633D02*
X62156266Y-67288966D01*
X62156266Y-67288966D02*
X62156266Y-67522300D01*
X62156266Y-67522300D02*
X62189599Y-67655633D01*
X62189599Y-67655633D02*
X62256266Y-67722300D01*
X62256266Y-67722300D02*
X62322932Y-67755633D01*
X62322932Y-67755633D02*
X62456266Y-67755633D01*
X62456266Y-67755633D02*
X62522932Y-67722300D01*
X62522932Y-67722300D02*
X62589599Y-67655633D01*
X62589599Y-67655633D02*
X62622932Y-67522300D01*
X62622932Y-67522300D02*
X62622932Y-67288966D01*
X62622932Y-67288966D02*
X62589599Y-67155633D01*
X62589599Y-67155633D02*
X62522932Y-67088966D01*
X62522932Y-67088966D02*
X62456266Y-67055633D01*
X61956266Y-67055633D02*
X61556266Y-67055633D01*
X61756266Y-67755633D02*
X61756266Y-67055633D01*
X61982333Y-68833633D02*
X62315666Y-68833633D01*
X62315666Y-68833633D02*
X62348999Y-69166966D01*
X62348999Y-69166966D02*
X62315666Y-69133633D01*
X62315666Y-69133633D02*
X62248999Y-69100300D01*
X62248999Y-69100300D02*
X62082333Y-69100300D01*
X62082333Y-69100300D02*
X62015666Y-69133633D01*
X62015666Y-69133633D02*
X61982333Y-69166966D01*
X61982333Y-69166966D02*
X61948999Y-69233633D01*
X61948999Y-69233633D02*
X61948999Y-69400300D01*
X61948999Y-69400300D02*
X61982333Y-69466966D01*
X61982333Y-69466966D02*
X62015666Y-69500300D01*
X62015666Y-69500300D02*
X62082333Y-69533633D01*
X62082333Y-69533633D02*
X62248999Y-69533633D01*
X62248999Y-69533633D02*
X62315666Y-69500300D01*
X62315666Y-69500300D02*
X62348999Y-69466966D01*
X61748999Y-68833633D02*
X61515666Y-69533633D01*
X61515666Y-69533633D02*
X61282332Y-68833633D01*
X55787066Y-67388966D02*
X55553733Y-67388966D01*
X55453733Y-67755633D02*
X55787066Y-67755633D01*
X55787066Y-67755633D02*
X55787066Y-67055633D01*
X55787066Y-67055633D02*
X55453733Y-67055633D01*
X55153733Y-67755633D02*
X55153733Y-67055633D01*
X55153733Y-67055633D02*
X54753733Y-67755633D01*
X54753733Y-67755633D02*
X54753733Y-67055633D01*
D11*
X59626143Y-59822399D02*
X59673762Y-59774780D01*
X59673762Y-59774780D02*
X59769000Y-59631923D01*
X59769000Y-59631923D02*
X59816619Y-59536685D01*
X59816619Y-59536685D02*
X59864238Y-59393828D01*
X59864238Y-59393828D02*
X59911857Y-59155732D01*
X59911857Y-59155732D02*
X59911857Y-58965256D01*
X59911857Y-58965256D02*
X59864238Y-58727161D01*
X59864238Y-58727161D02*
X59816619Y-58584304D01*
X59816619Y-58584304D02*
X59769000Y-58489066D01*
X59769000Y-58489066D02*
X59673762Y-58346208D01*
X59673762Y-58346208D02*
X59626143Y-58298589D01*
X58816619Y-59393828D02*
X58911857Y-59441447D01*
X58911857Y-59441447D02*
X59102333Y-59441447D01*
X59102333Y-59441447D02*
X59197571Y-59393828D01*
X59197571Y-59393828D02*
X59245190Y-59346208D01*
X59245190Y-59346208D02*
X59292809Y-59250970D01*
X59292809Y-59250970D02*
X59292809Y-58965256D01*
X59292809Y-58965256D02*
X59245190Y-58870018D01*
X59245190Y-58870018D02*
X59197571Y-58822399D01*
X59197571Y-58822399D02*
X59102333Y-58774780D01*
X59102333Y-58774780D02*
X58911857Y-58774780D01*
X58911857Y-58774780D02*
X58816619Y-58822399D01*
X58483285Y-59822399D02*
X58435666Y-59774780D01*
X58435666Y-59774780D02*
X58340428Y-59631923D01*
X58340428Y-59631923D02*
X58292809Y-59536685D01*
X58292809Y-59536685D02*
X58245190Y-59393828D01*
X58245190Y-59393828D02*
X58197571Y-59155732D01*
X58197571Y-59155732D02*
X58197571Y-58965256D01*
X58197571Y-58965256D02*
X58245190Y-58727161D01*
X58245190Y-58727161D02*
X58292809Y-58584304D01*
X58292809Y-58584304D02*
X58340428Y-58489066D01*
X58340428Y-58489066D02*
X58435666Y-58346208D01*
X58435666Y-58346208D02*
X58483285Y-58298589D01*
X57007094Y-58536685D02*
X56959475Y-58489066D01*
X56959475Y-58489066D02*
X56864237Y-58441447D01*
X56864237Y-58441447D02*
X56626142Y-58441447D01*
X56626142Y-58441447D02*
X56530904Y-58489066D01*
X56530904Y-58489066D02*
X56483285Y-58536685D01*
X56483285Y-58536685D02*
X56435666Y-58631923D01*
X56435666Y-58631923D02*
X56435666Y-58727161D01*
X56435666Y-58727161D02*
X56483285Y-58870018D01*
X56483285Y-58870018D02*
X57054713Y-59441447D01*
X57054713Y-59441447D02*
X56435666Y-59441447D01*
X55816618Y-58441447D02*
X55721380Y-58441447D01*
X55721380Y-58441447D02*
X55626142Y-58489066D01*
X55626142Y-58489066D02*
X55578523Y-58536685D01*
X55578523Y-58536685D02*
X55530904Y-58631923D01*
X55530904Y-58631923D02*
X55483285Y-58822399D01*
X55483285Y-58822399D02*
X55483285Y-59060494D01*
X55483285Y-59060494D02*
X55530904Y-59250970D01*
X55530904Y-59250970D02*
X55578523Y-59346208D01*
X55578523Y-59346208D02*
X55626142Y-59393828D01*
X55626142Y-59393828D02*
X55721380Y-59441447D01*
X55721380Y-59441447D02*
X55816618Y-59441447D01*
X55816618Y-59441447D02*
X55911856Y-59393828D01*
X55911856Y-59393828D02*
X55959475Y-59346208D01*
X55959475Y-59346208D02*
X56007094Y-59250970D01*
X56007094Y-59250970D02*
X56054713Y-59060494D01*
X56054713Y-59060494D02*
X56054713Y-58822399D01*
X56054713Y-58822399D02*
X56007094Y-58631923D01*
X56007094Y-58631923D02*
X55959475Y-58536685D01*
X55959475Y-58536685D02*
X55911856Y-58489066D01*
X55911856Y-58489066D02*
X55816618Y-58441447D01*
X55102332Y-58536685D02*
X55054713Y-58489066D01*
X55054713Y-58489066D02*
X54959475Y-58441447D01*
X54959475Y-58441447D02*
X54721380Y-58441447D01*
X54721380Y-58441447D02*
X54626142Y-58489066D01*
X54626142Y-58489066D02*
X54578523Y-58536685D01*
X54578523Y-58536685D02*
X54530904Y-58631923D01*
X54530904Y-58631923D02*
X54530904Y-58727161D01*
X54530904Y-58727161D02*
X54578523Y-58870018D01*
X54578523Y-58870018D02*
X55149951Y-59441447D01*
X55149951Y-59441447D02*
X54530904Y-59441447D01*
X53626142Y-58441447D02*
X54102332Y-58441447D01*
X54102332Y-58441447D02*
X54149951Y-58917637D01*
X54149951Y-58917637D02*
X54102332Y-58870018D01*
X54102332Y-58870018D02*
X54007094Y-58822399D01*
X54007094Y-58822399D02*
X53768999Y-58822399D01*
X53768999Y-58822399D02*
X53673761Y-58870018D01*
X53673761Y-58870018D02*
X53626142Y-58917637D01*
X53626142Y-58917637D02*
X53578523Y-59012875D01*
X53578523Y-59012875D02*
X53578523Y-59250970D01*
X53578523Y-59250970D02*
X53626142Y-59346208D01*
X53626142Y-59346208D02*
X53673761Y-59393828D01*
X53673761Y-59393828D02*
X53768999Y-59441447D01*
X53768999Y-59441447D02*
X54007094Y-59441447D01*
X54007094Y-59441447D02*
X54102332Y-59393828D01*
X54102332Y-59393828D02*
X54149951Y-59346208D01*
X60792809Y-60384724D02*
X60792809Y-61384724D01*
X60792809Y-60432343D02*
X60697571Y-60384724D01*
X60697571Y-60384724D02*
X60507095Y-60384724D01*
X60507095Y-60384724D02*
X60411857Y-60432343D01*
X60411857Y-60432343D02*
X60364238Y-60479962D01*
X60364238Y-60479962D02*
X60316619Y-60575200D01*
X60316619Y-60575200D02*
X60316619Y-60860914D01*
X60316619Y-60860914D02*
X60364238Y-60956152D01*
X60364238Y-60956152D02*
X60411857Y-61003772D01*
X60411857Y-61003772D02*
X60507095Y-61051391D01*
X60507095Y-61051391D02*
X60697571Y-61051391D01*
X60697571Y-61051391D02*
X60792809Y-61003772D01*
X59459476Y-61051391D02*
X59459476Y-60527581D01*
X59459476Y-60527581D02*
X59507095Y-60432343D01*
X59507095Y-60432343D02*
X59602333Y-60384724D01*
X59602333Y-60384724D02*
X59792809Y-60384724D01*
X59792809Y-60384724D02*
X59888047Y-60432343D01*
X59459476Y-61003772D02*
X59554714Y-61051391D01*
X59554714Y-61051391D02*
X59792809Y-61051391D01*
X59792809Y-61051391D02*
X59888047Y-61003772D01*
X59888047Y-61003772D02*
X59935666Y-60908533D01*
X59935666Y-60908533D02*
X59935666Y-60813295D01*
X59935666Y-60813295D02*
X59888047Y-60718057D01*
X59888047Y-60718057D02*
X59792809Y-60670438D01*
X59792809Y-60670438D02*
X59554714Y-60670438D01*
X59554714Y-60670438D02*
X59459476Y-60622819D01*
X58554714Y-61003772D02*
X58649952Y-61051391D01*
X58649952Y-61051391D02*
X58840428Y-61051391D01*
X58840428Y-61051391D02*
X58935666Y-61003772D01*
X58935666Y-61003772D02*
X58983285Y-60956152D01*
X58983285Y-60956152D02*
X59030904Y-60860914D01*
X59030904Y-60860914D02*
X59030904Y-60575200D01*
X59030904Y-60575200D02*
X58983285Y-60479962D01*
X58983285Y-60479962D02*
X58935666Y-60432343D01*
X58935666Y-60432343D02*
X58840428Y-60384724D01*
X58840428Y-60384724D02*
X58649952Y-60384724D01*
X58649952Y-60384724D02*
X58554714Y-60432343D01*
X58126142Y-61051391D02*
X58126142Y-60051391D01*
X58030904Y-60670438D02*
X57745190Y-61051391D01*
X57745190Y-60384724D02*
X58126142Y-60765676D01*
X57173761Y-61051391D02*
X57268999Y-61003772D01*
X57268999Y-61003772D02*
X57316618Y-60956152D01*
X57316618Y-60956152D02*
X57364237Y-60860914D01*
X57364237Y-60860914D02*
X57364237Y-60575200D01*
X57364237Y-60575200D02*
X57316618Y-60479962D01*
X57316618Y-60479962D02*
X57268999Y-60432343D01*
X57268999Y-60432343D02*
X57173761Y-60384724D01*
X57173761Y-60384724D02*
X57030904Y-60384724D01*
X57030904Y-60384724D02*
X56935666Y-60432343D01*
X56935666Y-60432343D02*
X56888047Y-60479962D01*
X56888047Y-60479962D02*
X56840428Y-60575200D01*
X56840428Y-60575200D02*
X56840428Y-60860914D01*
X56840428Y-60860914D02*
X56888047Y-60956152D01*
X56888047Y-60956152D02*
X56935666Y-61003772D01*
X56935666Y-61003772D02*
X57030904Y-61051391D01*
X57030904Y-61051391D02*
X57173761Y-61051391D01*
X56411856Y-61051391D02*
X56411856Y-60384724D01*
X56411856Y-60479962D02*
X56364237Y-60432343D01*
X56364237Y-60432343D02*
X56268999Y-60384724D01*
X56268999Y-60384724D02*
X56126142Y-60384724D01*
X56126142Y-60384724D02*
X56030904Y-60432343D01*
X56030904Y-60432343D02*
X55983285Y-60527581D01*
X55983285Y-60527581D02*
X55983285Y-61051391D01*
X55983285Y-60527581D02*
X55935666Y-60432343D01*
X55935666Y-60432343D02*
X55840428Y-60384724D01*
X55840428Y-60384724D02*
X55697571Y-60384724D01*
X55697571Y-60384724D02*
X55602332Y-60432343D01*
X55602332Y-60432343D02*
X55554713Y-60527581D01*
X55554713Y-60527581D02*
X55554713Y-61051391D01*
X55078523Y-60956152D02*
X55030904Y-61003772D01*
X55030904Y-61003772D02*
X55078523Y-61051391D01*
X55078523Y-61051391D02*
X55126142Y-61003772D01*
X55126142Y-61003772D02*
X55078523Y-60956152D01*
X55078523Y-60956152D02*
X55078523Y-61051391D01*
X54602333Y-60384724D02*
X54602333Y-61051391D01*
X54602333Y-60479962D02*
X54554714Y-60432343D01*
X54554714Y-60432343D02*
X54459476Y-60384724D01*
X54459476Y-60384724D02*
X54316619Y-60384724D01*
X54316619Y-60384724D02*
X54221381Y-60432343D01*
X54221381Y-60432343D02*
X54173762Y-60527581D01*
X54173762Y-60527581D02*
X54173762Y-61051391D01*
X53316619Y-61003772D02*
X53411857Y-61051391D01*
X53411857Y-61051391D02*
X53602333Y-61051391D01*
X53602333Y-61051391D02*
X53697571Y-61003772D01*
X53697571Y-61003772D02*
X53745190Y-60908533D01*
X53745190Y-60908533D02*
X53745190Y-60527581D01*
X53745190Y-60527581D02*
X53697571Y-60432343D01*
X53697571Y-60432343D02*
X53602333Y-60384724D01*
X53602333Y-60384724D02*
X53411857Y-60384724D01*
X53411857Y-60384724D02*
X53316619Y-60432343D01*
X53316619Y-60432343D02*
X53269000Y-60527581D01*
X53269000Y-60527581D02*
X53269000Y-60622819D01*
X53269000Y-60622819D02*
X53745190Y-60718057D01*
X52983285Y-60384724D02*
X52602333Y-60384724D01*
X52840428Y-60051391D02*
X52840428Y-60908533D01*
X52840428Y-60908533D02*
X52792809Y-61003772D01*
X52792809Y-61003772D02*
X52697571Y-61051391D01*
X52697571Y-61051391D02*
X52602333Y-61051391D01*
D10*
X58592133Y-67055633D02*
X58192133Y-67055633D01*
X58392133Y-67755633D02*
X58392133Y-67055633D01*
X58025467Y-67055633D02*
X57558800Y-67755633D01*
X57558800Y-67055633D02*
X58025467Y-67755633D01*
X57292133Y-67755633D02*
X57292133Y-67055633D01*
X57292133Y-67055633D02*
X57125466Y-67055633D01*
X57125466Y-67055633D02*
X57025466Y-67088966D01*
X57025466Y-67088966D02*
X56958800Y-67155633D01*
X56958800Y-67155633D02*
X56925466Y-67222300D01*
X56925466Y-67222300D02*
X56892133Y-67355633D01*
X56892133Y-67355633D02*
X56892133Y-67455633D01*
X56892133Y-67455633D02*
X56925466Y-67588966D01*
X56925466Y-67588966D02*
X56958800Y-67655633D01*
X56958800Y-67655633D02*
X57025466Y-67722300D01*
X57025466Y-67722300D02*
X57125466Y-67755633D01*
X57125466Y-67755633D02*
X57292133Y-67755633D01*
X49185966Y-72904199D02*
X49652633Y-72904199D01*
X49519300Y-72904199D02*
X49585966Y-72870866D01*
X49585966Y-72870866D02*
X49619300Y-72837532D01*
X49619300Y-72837532D02*
X49652633Y-72770866D01*
X49652633Y-72770866D02*
X49652633Y-72704199D01*
X49219300Y-72204199D02*
X49185966Y-72270866D01*
X49185966Y-72270866D02*
X49185966Y-72404199D01*
X49185966Y-72404199D02*
X49219300Y-72470866D01*
X49219300Y-72470866D02*
X49285966Y-72504199D01*
X49285966Y-72504199D02*
X49552633Y-72504199D01*
X49552633Y-72504199D02*
X49619300Y-72470866D01*
X49619300Y-72470866D02*
X49652633Y-72404199D01*
X49652633Y-72404199D02*
X49652633Y-72270866D01*
X49652633Y-72270866D02*
X49619300Y-72204199D01*
X49619300Y-72204199D02*
X49552633Y-72170866D01*
X49552633Y-72170866D02*
X49485966Y-72170866D01*
X49485966Y-72170866D02*
X49419300Y-72504199D01*
X49652633Y-71937533D02*
X49185966Y-71770866D01*
X49185966Y-71770866D02*
X49652633Y-71604199D01*
X49185966Y-70504200D02*
X49552633Y-70504200D01*
X49552633Y-70504200D02*
X49619300Y-70537533D01*
X49619300Y-70537533D02*
X49652633Y-70604200D01*
X49652633Y-70604200D02*
X49652633Y-70737533D01*
X49652633Y-70737533D02*
X49619300Y-70804200D01*
X49219300Y-70504200D02*
X49185966Y-70570867D01*
X49185966Y-70570867D02*
X49185966Y-70737533D01*
X49185966Y-70737533D02*
X49219300Y-70804200D01*
X49219300Y-70804200D02*
X49285966Y-70837533D01*
X49285966Y-70837533D02*
X49352633Y-70837533D01*
X49352633Y-70837533D02*
X49419300Y-70804200D01*
X49419300Y-70804200D02*
X49452633Y-70737533D01*
X49452633Y-70737533D02*
X49452633Y-70570867D01*
X49452633Y-70570867D02*
X49485966Y-70504200D01*
X62947533Y-61975633D02*
X63280866Y-61975633D01*
X63280866Y-61975633D02*
X63314199Y-62308966D01*
X63314199Y-62308966D02*
X63280866Y-62275633D01*
X63280866Y-62275633D02*
X63214199Y-62242300D01*
X63214199Y-62242300D02*
X63047533Y-62242300D01*
X63047533Y-62242300D02*
X62980866Y-62275633D01*
X62980866Y-62275633D02*
X62947533Y-62308966D01*
X62947533Y-62308966D02*
X62914199Y-62375633D01*
X62914199Y-62375633D02*
X62914199Y-62542300D01*
X62914199Y-62542300D02*
X62947533Y-62608966D01*
X62947533Y-62608966D02*
X62980866Y-62642300D01*
X62980866Y-62642300D02*
X63047533Y-62675633D01*
X63047533Y-62675633D02*
X63214199Y-62675633D01*
X63214199Y-62675633D02*
X63280866Y-62642300D01*
X63280866Y-62642300D02*
X63314199Y-62608966D01*
X62714199Y-61975633D02*
X62480866Y-62675633D01*
X62480866Y-62675633D02*
X62247532Y-61975633D01*
D11*
X63578524Y-53448352D02*
X63578524Y-54448352D01*
X63578524Y-53495971D02*
X63483286Y-53448352D01*
X63483286Y-53448352D02*
X63292810Y-53448352D01*
X63292810Y-53448352D02*
X63197572Y-53495971D01*
X63197572Y-53495971D02*
X63149953Y-53543590D01*
X63149953Y-53543590D02*
X63102334Y-53638828D01*
X63102334Y-53638828D02*
X63102334Y-53924542D01*
X63102334Y-53924542D02*
X63149953Y-54019780D01*
X63149953Y-54019780D02*
X63197572Y-54067400D01*
X63197572Y-54067400D02*
X63292810Y-54115019D01*
X63292810Y-54115019D02*
X63483286Y-54115019D01*
X63483286Y-54115019D02*
X63578524Y-54067400D01*
X62673762Y-54115019D02*
X62673762Y-53448352D01*
X62673762Y-53115019D02*
X62721381Y-53162638D01*
X62721381Y-53162638D02*
X62673762Y-53210257D01*
X62673762Y-53210257D02*
X62626143Y-53162638D01*
X62626143Y-53162638D02*
X62673762Y-53115019D01*
X62673762Y-53115019D02*
X62673762Y-53210257D01*
X61816620Y-54067400D02*
X61911858Y-54115019D01*
X61911858Y-54115019D02*
X62102334Y-54115019D01*
X62102334Y-54115019D02*
X62197572Y-54067400D01*
X62197572Y-54067400D02*
X62245191Y-53972161D01*
X62245191Y-53972161D02*
X62245191Y-53591209D01*
X62245191Y-53591209D02*
X62197572Y-53495971D01*
X62197572Y-53495971D02*
X62102334Y-53448352D01*
X62102334Y-53448352D02*
X61911858Y-53448352D01*
X61911858Y-53448352D02*
X61816620Y-53495971D01*
X61816620Y-53495971D02*
X61769001Y-53591209D01*
X61769001Y-53591209D02*
X61769001Y-53686447D01*
X61769001Y-53686447D02*
X62245191Y-53781685D01*
X61340429Y-54115019D02*
X61340429Y-53448352D01*
X61340429Y-53638828D02*
X61292810Y-53543590D01*
X61292810Y-53543590D02*
X61245191Y-53495971D01*
X61245191Y-53495971D02*
X61149953Y-53448352D01*
X61149953Y-53448352D02*
X61054715Y-53448352D01*
X60769000Y-54067400D02*
X60673762Y-54115019D01*
X60673762Y-54115019D02*
X60483286Y-54115019D01*
X60483286Y-54115019D02*
X60388048Y-54067400D01*
X60388048Y-54067400D02*
X60340429Y-53972161D01*
X60340429Y-53972161D02*
X60340429Y-53924542D01*
X60340429Y-53924542D02*
X60388048Y-53829304D01*
X60388048Y-53829304D02*
X60483286Y-53781685D01*
X60483286Y-53781685D02*
X60626143Y-53781685D01*
X60626143Y-53781685D02*
X60721381Y-53734066D01*
X60721381Y-53734066D02*
X60769000Y-53638828D01*
X60769000Y-53638828D02*
X60769000Y-53591209D01*
X60769000Y-53591209D02*
X60721381Y-53495971D01*
X60721381Y-53495971D02*
X60626143Y-53448352D01*
X60626143Y-53448352D02*
X60483286Y-53448352D01*
X60483286Y-53448352D02*
X60388048Y-53495971D01*
X59911857Y-54019780D02*
X59864238Y-54067400D01*
X59864238Y-54067400D02*
X59911857Y-54115019D01*
X59911857Y-54115019D02*
X59959476Y-54067400D01*
X59959476Y-54067400D02*
X59911857Y-54019780D01*
X59911857Y-54019780D02*
X59911857Y-54115019D01*
X59435667Y-54115019D02*
X59435667Y-53448352D01*
X59435667Y-53638828D02*
X59388048Y-53543590D01*
X59388048Y-53543590D02*
X59340429Y-53495971D01*
X59340429Y-53495971D02*
X59245191Y-53448352D01*
X59245191Y-53448352D02*
X59149953Y-53448352D01*
X58673762Y-54115019D02*
X58769000Y-54067400D01*
X58769000Y-54067400D02*
X58816619Y-54019780D01*
X58816619Y-54019780D02*
X58864238Y-53924542D01*
X58864238Y-53924542D02*
X58864238Y-53638828D01*
X58864238Y-53638828D02*
X58816619Y-53543590D01*
X58816619Y-53543590D02*
X58769000Y-53495971D01*
X58769000Y-53495971D02*
X58673762Y-53448352D01*
X58673762Y-53448352D02*
X58530905Y-53448352D01*
X58530905Y-53448352D02*
X58435667Y-53495971D01*
X58435667Y-53495971D02*
X58388048Y-53543590D01*
X58388048Y-53543590D02*
X58340429Y-53638828D01*
X58340429Y-53638828D02*
X58340429Y-53924542D01*
X58340429Y-53924542D02*
X58388048Y-54019780D01*
X58388048Y-54019780D02*
X58435667Y-54067400D01*
X58435667Y-54067400D02*
X58530905Y-54115019D01*
X58530905Y-54115019D02*
X58673762Y-54115019D01*
X57483286Y-54067400D02*
X57578524Y-54115019D01*
X57578524Y-54115019D02*
X57769000Y-54115019D01*
X57769000Y-54115019D02*
X57864238Y-54067400D01*
X57864238Y-54067400D02*
X57911857Y-54019780D01*
X57911857Y-54019780D02*
X57959476Y-53924542D01*
X57959476Y-53924542D02*
X57959476Y-53638828D01*
X57959476Y-53638828D02*
X57911857Y-53543590D01*
X57911857Y-53543590D02*
X57864238Y-53495971D01*
X57864238Y-53495971D02*
X57769000Y-53448352D01*
X57769000Y-53448352D02*
X57578524Y-53448352D01*
X57578524Y-53448352D02*
X57483286Y-53495971D01*
X57054714Y-54115019D02*
X57054714Y-53115019D01*
X56959476Y-53734066D02*
X56673762Y-54115019D01*
X56673762Y-53448352D02*
X57054714Y-53829304D01*
X56292809Y-54067400D02*
X56197571Y-54115019D01*
X56197571Y-54115019D02*
X56007095Y-54115019D01*
X56007095Y-54115019D02*
X55911857Y-54067400D01*
X55911857Y-54067400D02*
X55864238Y-53972161D01*
X55864238Y-53972161D02*
X55864238Y-53924542D01*
X55864238Y-53924542D02*
X55911857Y-53829304D01*
X55911857Y-53829304D02*
X56007095Y-53781685D01*
X56007095Y-53781685D02*
X56149952Y-53781685D01*
X56149952Y-53781685D02*
X56245190Y-53734066D01*
X56245190Y-53734066D02*
X56292809Y-53638828D01*
X56292809Y-53638828D02*
X56292809Y-53591209D01*
X56292809Y-53591209D02*
X56245190Y-53495971D01*
X56245190Y-53495971D02*
X56149952Y-53448352D01*
X56149952Y-53448352D02*
X56007095Y-53448352D01*
X56007095Y-53448352D02*
X55911857Y-53495971D01*
X54721381Y-53067400D02*
X55578523Y-54353114D01*
X53959476Y-53448352D02*
X53959476Y-54115019D01*
X54388047Y-53448352D02*
X54388047Y-53972161D01*
X54388047Y-53972161D02*
X54340428Y-54067400D01*
X54340428Y-54067400D02*
X54245190Y-54115019D01*
X54245190Y-54115019D02*
X54102333Y-54115019D01*
X54102333Y-54115019D02*
X54007095Y-54067400D01*
X54007095Y-54067400D02*
X53959476Y-54019780D01*
X52769000Y-53067400D02*
X53626142Y-54353114D01*
X52483285Y-54067400D02*
X52388047Y-54115019D01*
X52388047Y-54115019D02*
X52197571Y-54115019D01*
X52197571Y-54115019D02*
X52102333Y-54067400D01*
X52102333Y-54067400D02*
X52054714Y-53972161D01*
X52054714Y-53972161D02*
X52054714Y-53924542D01*
X52054714Y-53924542D02*
X52102333Y-53829304D01*
X52102333Y-53829304D02*
X52197571Y-53781685D01*
X52197571Y-53781685D02*
X52340428Y-53781685D01*
X52340428Y-53781685D02*
X52435666Y-53734066D01*
X52435666Y-53734066D02*
X52483285Y-53638828D01*
X52483285Y-53638828D02*
X52483285Y-53591209D01*
X52483285Y-53591209D02*
X52435666Y-53495971D01*
X52435666Y-53495971D02*
X52340428Y-53448352D01*
X52340428Y-53448352D02*
X52197571Y-53448352D01*
X52197571Y-53448352D02*
X52102333Y-53495971D01*
X51197571Y-54115019D02*
X51197571Y-53115019D01*
X51197571Y-54067400D02*
X51292809Y-54115019D01*
X51292809Y-54115019D02*
X51483285Y-54115019D01*
X51483285Y-54115019D02*
X51578523Y-54067400D01*
X51578523Y-54067400D02*
X51626142Y-54019780D01*
X51626142Y-54019780D02*
X51673761Y-53924542D01*
X51673761Y-53924542D02*
X51673761Y-53638828D01*
X51673761Y-53638828D02*
X51626142Y-53543590D01*
X51626142Y-53543590D02*
X51578523Y-53495971D01*
X51578523Y-53495971D02*
X51483285Y-53448352D01*
X51483285Y-53448352D02*
X51292809Y-53448352D01*
X51292809Y-53448352D02*
X51197571Y-53495971D01*
X50721380Y-54115019D02*
X50721380Y-53448352D01*
X50721380Y-53638828D02*
X50673761Y-53543590D01*
X50673761Y-53543590D02*
X50626142Y-53495971D01*
X50626142Y-53495971D02*
X50530904Y-53448352D01*
X50530904Y-53448352D02*
X50435666Y-53448352D01*
X50102332Y-54115019D02*
X50102332Y-53448352D01*
X50102332Y-53638828D02*
X50054713Y-53543590D01*
X50054713Y-53543590D02*
X50007094Y-53495971D01*
X50007094Y-53495971D02*
X49911856Y-53448352D01*
X49911856Y-53448352D02*
X49816618Y-53448352D01*
D10*
X52247732Y-68841566D02*
X52314399Y-68808233D01*
X52314399Y-68808233D02*
X52414399Y-68808233D01*
X52414399Y-68808233D02*
X52514399Y-68841566D01*
X52514399Y-68841566D02*
X52581066Y-68908233D01*
X52581066Y-68908233D02*
X52614399Y-68974900D01*
X52614399Y-68974900D02*
X52647732Y-69108233D01*
X52647732Y-69108233D02*
X52647732Y-69208233D01*
X52647732Y-69208233D02*
X52614399Y-69341566D01*
X52614399Y-69341566D02*
X52581066Y-69408233D01*
X52581066Y-69408233D02*
X52514399Y-69474900D01*
X52514399Y-69474900D02*
X52414399Y-69508233D01*
X52414399Y-69508233D02*
X52347732Y-69508233D01*
X52347732Y-69508233D02*
X52247732Y-69474900D01*
X52247732Y-69474900D02*
X52214399Y-69441566D01*
X52214399Y-69441566D02*
X52214399Y-69208233D01*
X52214399Y-69208233D02*
X52347732Y-69208233D01*
X51914399Y-69508233D02*
X51914399Y-68808233D01*
X51914399Y-68808233D02*
X51514399Y-69508233D01*
X51514399Y-69508233D02*
X51514399Y-68808233D01*
X51181066Y-69508233D02*
X51181066Y-68808233D01*
X51181066Y-68808233D02*
X51014399Y-68808233D01*
X51014399Y-68808233D02*
X50914399Y-68841566D01*
X50914399Y-68841566D02*
X50847733Y-68908233D01*
X50847733Y-68908233D02*
X50814399Y-68974900D01*
X50814399Y-68974900D02*
X50781066Y-69108233D01*
X50781066Y-69108233D02*
X50781066Y-69208233D01*
X50781066Y-69208233D02*
X50814399Y-69341566D01*
X50814399Y-69341566D02*
X50847733Y-69408233D01*
X50847733Y-69408233D02*
X50914399Y-69474900D01*
X50914399Y-69474900D02*
X51014399Y-69508233D01*
X51014399Y-69508233D02*
X51181066Y-69508233D01*
M02*
