M48
METRIC,TZ
T1C0.305
T2C0.457
T3C1.000
T4C2.400
%
G90
G05
T1
X50699Y-65531
X52095Y-65532
X52553Y-57048
X52553Y-57810
X56617Y-64999
X60688Y-60180
X61519Y-60198
X61570Y-66421
X61658Y-55410
X61697Y-56210
T2
X50419Y-63195
X51943Y-54635
X52984Y-63602
X53340Y-54813
X53391Y-59817
X57760Y-69774
X57861Y-63348
X60477Y-54813
X61316Y-58826
T3
X51689Y-71374
X54229Y-71374
X55220Y-65913
X56769Y-71374
X57760Y-65913
X59309Y-71374
X60300Y-63830
X60300Y-65913
X61849Y-71374
X62840Y-63830
X62840Y-65913
T4
X56769Y-56210
M30
