%TF.GenerationSoftware,KiCad,Pcbnew,8.0.5*%
%TF.CreationDate,2025-07-05T11:02:35+01:00*%
%TF.ProjectId,sdrr wifi rev a,73647272-2077-4696-9669-207265762061,rev?*%
%TF.SameCoordinates,Original*%
%TF.FileFunction,Soldermask,Top*%
%TF.FilePolarity,Negative*%
%FSLAX46Y46*%
G04 Gerber Fmt 4.6, Leading zero omitted, Abs format (unit mm)*
G04 Created by KiCad (PCBNEW 8.0.5) date 2025-07-05 11:02:35*
%MOMM*%
%LPD*%
G01*
G04 APERTURE LIST*
G04 Aperture macros list*
%AMRoundRect*
0 Rectangle with rounded corners*
0 $1 Rounding radius*
0 $2 $3 $4 $5 $6 $7 $8 $9 X,Y pos of 4 corners*
0 Add a 4 corners polygon primitive as box body*
4,1,4,$2,$3,$4,$5,$6,$7,$8,$9,$2,$3,0*
0 Add four circle primitives for the rounded corners*
1,1,$1+$1,$2,$3*
1,1,$1+$1,$4,$5*
1,1,$1+$1,$6,$7*
1,1,$1+$1,$8,$9*
0 Add four rect primitives between the rounded corners*
20,1,$1+$1,$2,$3,$4,$5,0*
20,1,$1+$1,$4,$5,$6,$7,0*
20,1,$1+$1,$6,$7,$8,$9,0*
20,1,$1+$1,$8,$9,$2,$3,0*%
%AMFreePoly0*
4,1,6,0.725000,-0.725000,-0.725000,-0.725000,-0.725000,0.125000,-0.125000,0.725000,0.725000,0.725000,0.725000,-0.725000,0.725000,-0.725000,$1*%
G04 Aperture macros list end*
%ADD10RoundRect,0.200000X0.275000X-0.200000X0.275000X0.200000X-0.275000X0.200000X-0.275000X-0.200000X0*%
%ADD11R,1.700000X1.700000*%
%ADD12O,1.700000X1.700000*%
%ADD13RoundRect,0.150000X-0.512500X-0.150000X0.512500X-0.150000X0.512500X0.150000X-0.512500X0.150000X0*%
%ADD14RoundRect,0.200000X-0.275000X0.200000X-0.275000X-0.200000X0.275000X-0.200000X0.275000X0.200000X0*%
%ADD15RoundRect,0.225000X0.250000X-0.225000X0.250000X0.225000X-0.250000X0.225000X-0.250000X-0.225000X0*%
%ADD16R,1.800000X0.400000*%
%ADD17R,0.400000X1.800000*%
%ADD18R,0.400000X0.800000*%
%ADD19FreePoly0,0.000000*%
%ADD20R,1.450000X1.450000*%
%ADD21C,2.800000*%
%ADD22R,1.700000X0.700000*%
%ADD23RoundRect,0.225000X-0.225000X-0.250000X0.225000X-0.250000X0.225000X0.250000X-0.225000X0.250000X0*%
%ADD24RoundRect,0.225000X-0.250000X0.225000X-0.250000X-0.225000X0.250000X-0.225000X0.250000X0.225000X0*%
G04 APERTURE END LIST*
D10*
%TO.C,R4*%
X60350400Y-69557400D03*
X60350400Y-67907400D03*
%TD*%
D11*
%TO.C,J3*%
X60299600Y-63830200D03*
D12*
X62839600Y-63830200D03*
%TD*%
D13*
%TO.C,U2*%
X51973900Y-67767200D03*
X51973900Y-68717200D03*
X51973900Y-69667200D03*
X54248900Y-69667200D03*
X54248900Y-67767200D03*
%TD*%
D14*
%TO.C,R6*%
X51485800Y-64707000D03*
X51485800Y-66357000D03*
%TD*%
D10*
%TO.C,R3*%
X61818100Y-69557400D03*
X61818100Y-67907400D03*
%TD*%
D11*
%TO.C,J2*%
X55219600Y-65913000D03*
D12*
X57759600Y-65913000D03*
X60299600Y-65913000D03*
X62839600Y-65913000D03*
%TD*%
D14*
%TO.C,R5*%
X50012600Y-64707000D03*
X50012600Y-66357000D03*
%TD*%
D15*
%TO.C,C1*%
X50311900Y-69507400D03*
X50311900Y-67957400D03*
%TD*%
D16*
%TO.C,U1*%
X50369000Y-52210200D03*
X50369000Y-53010200D03*
X50369000Y-53810200D03*
X50369000Y-54610200D03*
X50369000Y-55410200D03*
X50369000Y-56210200D03*
X50369000Y-57010200D03*
X50369000Y-57810200D03*
X50369000Y-58610200D03*
X50369000Y-59410200D03*
X50369000Y-60210200D03*
D17*
X51969000Y-61610200D03*
X52769000Y-61610200D03*
X53569000Y-61610200D03*
X54369000Y-61610200D03*
X55169000Y-61610200D03*
X55969000Y-61610200D03*
X56769000Y-61610200D03*
X57569000Y-61610200D03*
X58369000Y-61610200D03*
X59169000Y-61610200D03*
X59969000Y-61610200D03*
X60769000Y-61610200D03*
X61569000Y-61610200D03*
D16*
X63169000Y-60210200D03*
X63169000Y-59410200D03*
X63169000Y-58610200D03*
X63169000Y-57810200D03*
X63169000Y-57010200D03*
X63169000Y-56210200D03*
X63169000Y-55410200D03*
X63169000Y-54610200D03*
X63169000Y-53810200D03*
X63169000Y-53010200D03*
X63169000Y-52210200D03*
D18*
X61569000Y-51310200D03*
X60769000Y-51310200D03*
X59969000Y-51310200D03*
X59169000Y-51310200D03*
X58369000Y-51310200D03*
X57569000Y-51310200D03*
X56769000Y-51310200D03*
X55969000Y-51310200D03*
X55169000Y-51310200D03*
X54369000Y-51310200D03*
X53569000Y-51310200D03*
X52769000Y-51310200D03*
X51969000Y-51310200D03*
D19*
X54794000Y-54235200D03*
D20*
X54794000Y-56210200D03*
X54794000Y-58185200D03*
X56769000Y-54235200D03*
D21*
X56769000Y-56210200D03*
D20*
X56769000Y-58185200D03*
X58744000Y-54235200D03*
X58744000Y-56210200D03*
X58744000Y-58185200D03*
D22*
X63119000Y-51260200D03*
D11*
X63119000Y-61610200D03*
X50419000Y-61610200D03*
D22*
X50419000Y-51260200D03*
%TD*%
D10*
%TO.C,R1*%
X58877200Y-69557400D03*
X58877200Y-67907400D03*
%TD*%
D23*
%TO.C,C4*%
X54419200Y-63347600D03*
X55969200Y-63347600D03*
%TD*%
D24*
%TO.C,C2*%
X55925300Y-67957400D03*
X55925300Y-69507400D03*
%TD*%
D10*
%TO.C,R2*%
X63291300Y-69557400D03*
X63291300Y-67907400D03*
%TD*%
D24*
%TO.C,C3*%
X52959000Y-64757000D03*
X52959000Y-66307000D03*
%TD*%
D11*
%TO.C,J1*%
X51689000Y-71374000D03*
D12*
X54229000Y-71374000D03*
X56769000Y-71374000D03*
X59309000Y-71374000D03*
X61849000Y-71374000D03*
%TD*%
M02*
