%TF.GenerationSoftware,KiCad,Pcbnew,8.0.5*%
%TF.CreationDate,2025-07-05T10:51:28+01:00*%
%TF.ProjectId,sdrr 28 rev a,73647272-2032-4382-9072-657620612e6b,rev?*%
%TF.SameCoordinates,Original*%
%TF.FileFunction,Legend,Top*%
%TF.FilePolarity,Positive*%
%FSLAX46Y46*%
G04 Gerber Fmt 4.6, Leading zero omitted, Abs format (unit mm)*
G04 Created by KiCad (PCBNEW 8.0.5) date 2025-07-05 10:51:28*
%MOMM*%
%LPD*%
G01*
G04 APERTURE LIST*
%ADD10C,0.100000*%
%ADD11C,0.125000*%
%ADD12C,0.150000*%
%ADD13C,0.120000*%
G04 APERTURE END LIST*
D10*
X99974400Y-26593800D02*
X99974400Y-25069800D01*
X101498400Y-25069800D01*
X99974400Y-26593800D01*
G36*
X99974400Y-26593800D02*
G01*
X99974400Y-25069800D01*
X101498400Y-25069800D01*
X99974400Y-26593800D01*
G37*
X113729266Y-37224833D02*
X113495933Y-36891500D01*
X113329266Y-37224833D02*
X113329266Y-36524833D01*
X113329266Y-36524833D02*
X113595933Y-36524833D01*
X113595933Y-36524833D02*
X113662600Y-36558166D01*
X113662600Y-36558166D02*
X113695933Y-36591500D01*
X113695933Y-36591500D02*
X113729266Y-36658166D01*
X113729266Y-36658166D02*
X113729266Y-36758166D01*
X113729266Y-36758166D02*
X113695933Y-36824833D01*
X113695933Y-36824833D02*
X113662600Y-36858166D01*
X113662600Y-36858166D02*
X113595933Y-36891500D01*
X113595933Y-36891500D02*
X113329266Y-36891500D01*
X106419667Y-55944633D02*
X106553000Y-55944633D01*
X106553000Y-55944633D02*
X106619667Y-55911300D01*
X106619667Y-55911300D02*
X106653000Y-55877966D01*
X106653000Y-55877966D02*
X106719667Y-55777966D01*
X106719667Y-55777966D02*
X106753000Y-55644633D01*
X106753000Y-55644633D02*
X106753000Y-55377966D01*
X106753000Y-55377966D02*
X106719667Y-55311300D01*
X106719667Y-55311300D02*
X106686333Y-55277966D01*
X106686333Y-55277966D02*
X106619667Y-55244633D01*
X106619667Y-55244633D02*
X106486333Y-55244633D01*
X106486333Y-55244633D02*
X106419667Y-55277966D01*
X106419667Y-55277966D02*
X106386333Y-55311300D01*
X106386333Y-55311300D02*
X106353000Y-55377966D01*
X106353000Y-55377966D02*
X106353000Y-55544633D01*
X106353000Y-55544633D02*
X106386333Y-55611300D01*
X106386333Y-55611300D02*
X106419667Y-55644633D01*
X106419667Y-55644633D02*
X106486333Y-55677966D01*
X106486333Y-55677966D02*
X106619667Y-55677966D01*
X106619667Y-55677966D02*
X106686333Y-55644633D01*
X106686333Y-55644633D02*
X106719667Y-55611300D01*
X106719667Y-55611300D02*
X106753000Y-55544633D01*
D11*
X103431905Y-34262460D02*
X103431905Y-35112460D01*
X103431905Y-34302936D02*
X103512858Y-34262460D01*
X103512858Y-34262460D02*
X103674763Y-34262460D01*
X103674763Y-34262460D02*
X103755715Y-34302936D01*
X103755715Y-34302936D02*
X103796191Y-34343412D01*
X103796191Y-34343412D02*
X103836667Y-34424365D01*
X103836667Y-34424365D02*
X103836667Y-34667222D01*
X103836667Y-34667222D02*
X103796191Y-34748174D01*
X103796191Y-34748174D02*
X103755715Y-34788651D01*
X103755715Y-34788651D02*
X103674763Y-34829127D01*
X103674763Y-34829127D02*
X103512858Y-34829127D01*
X103512858Y-34829127D02*
X103431905Y-34788651D01*
X104200953Y-34829127D02*
X104200953Y-34262460D01*
X104200953Y-33979127D02*
X104160477Y-34019603D01*
X104160477Y-34019603D02*
X104200953Y-34060079D01*
X104200953Y-34060079D02*
X104241430Y-34019603D01*
X104241430Y-34019603D02*
X104200953Y-33979127D01*
X104200953Y-33979127D02*
X104200953Y-34060079D01*
X104929525Y-34788651D02*
X104848573Y-34829127D01*
X104848573Y-34829127D02*
X104686668Y-34829127D01*
X104686668Y-34829127D02*
X104605715Y-34788651D01*
X104605715Y-34788651D02*
X104565239Y-34707698D01*
X104565239Y-34707698D02*
X104565239Y-34383889D01*
X104565239Y-34383889D02*
X104605715Y-34302936D01*
X104605715Y-34302936D02*
X104686668Y-34262460D01*
X104686668Y-34262460D02*
X104848573Y-34262460D01*
X104848573Y-34262460D02*
X104929525Y-34302936D01*
X104929525Y-34302936D02*
X104970001Y-34383889D01*
X104970001Y-34383889D02*
X104970001Y-34464841D01*
X104970001Y-34464841D02*
X104565239Y-34545793D01*
X105334286Y-34829127D02*
X105334286Y-34262460D01*
X105334286Y-34424365D02*
X105374763Y-34343412D01*
X105374763Y-34343412D02*
X105415239Y-34302936D01*
X105415239Y-34302936D02*
X105496191Y-34262460D01*
X105496191Y-34262460D02*
X105577144Y-34262460D01*
X105820000Y-34788651D02*
X105900953Y-34829127D01*
X105900953Y-34829127D02*
X106062857Y-34829127D01*
X106062857Y-34829127D02*
X106143810Y-34788651D01*
X106143810Y-34788651D02*
X106184286Y-34707698D01*
X106184286Y-34707698D02*
X106184286Y-34667222D01*
X106184286Y-34667222D02*
X106143810Y-34586270D01*
X106143810Y-34586270D02*
X106062857Y-34545793D01*
X106062857Y-34545793D02*
X105941429Y-34545793D01*
X105941429Y-34545793D02*
X105860476Y-34505317D01*
X105860476Y-34505317D02*
X105820000Y-34424365D01*
X105820000Y-34424365D02*
X105820000Y-34383889D01*
X105820000Y-34383889D02*
X105860476Y-34302936D01*
X105860476Y-34302936D02*
X105941429Y-34262460D01*
X105941429Y-34262460D02*
X106062857Y-34262460D01*
X106062857Y-34262460D02*
X106143810Y-34302936D01*
X106548571Y-34748174D02*
X106589048Y-34788651D01*
X106589048Y-34788651D02*
X106548571Y-34829127D01*
X106548571Y-34829127D02*
X106508095Y-34788651D01*
X106508095Y-34788651D02*
X106548571Y-34748174D01*
X106548571Y-34748174D02*
X106548571Y-34829127D01*
X106953333Y-34829127D02*
X106953333Y-34262460D01*
X106953333Y-34424365D02*
X106993810Y-34343412D01*
X106993810Y-34343412D02*
X107034286Y-34302936D01*
X107034286Y-34302936D02*
X107115238Y-34262460D01*
X107115238Y-34262460D02*
X107196191Y-34262460D01*
X107600952Y-34829127D02*
X107520000Y-34788651D01*
X107520000Y-34788651D02*
X107479523Y-34748174D01*
X107479523Y-34748174D02*
X107439047Y-34667222D01*
X107439047Y-34667222D02*
X107439047Y-34424365D01*
X107439047Y-34424365D02*
X107479523Y-34343412D01*
X107479523Y-34343412D02*
X107520000Y-34302936D01*
X107520000Y-34302936D02*
X107600952Y-34262460D01*
X107600952Y-34262460D02*
X107722381Y-34262460D01*
X107722381Y-34262460D02*
X107803333Y-34302936D01*
X107803333Y-34302936D02*
X107843809Y-34343412D01*
X107843809Y-34343412D02*
X107884285Y-34424365D01*
X107884285Y-34424365D02*
X107884285Y-34667222D01*
X107884285Y-34667222D02*
X107843809Y-34748174D01*
X107843809Y-34748174D02*
X107803333Y-34788651D01*
X107803333Y-34788651D02*
X107722381Y-34829127D01*
X107722381Y-34829127D02*
X107600952Y-34829127D01*
X108612857Y-34788651D02*
X108531905Y-34829127D01*
X108531905Y-34829127D02*
X108370000Y-34829127D01*
X108370000Y-34829127D02*
X108289048Y-34788651D01*
X108289048Y-34788651D02*
X108248571Y-34748174D01*
X108248571Y-34748174D02*
X108208095Y-34667222D01*
X108208095Y-34667222D02*
X108208095Y-34424365D01*
X108208095Y-34424365D02*
X108248571Y-34343412D01*
X108248571Y-34343412D02*
X108289048Y-34302936D01*
X108289048Y-34302936D02*
X108370000Y-34262460D01*
X108370000Y-34262460D02*
X108531905Y-34262460D01*
X108531905Y-34262460D02*
X108612857Y-34302936D01*
X108977142Y-34829127D02*
X108977142Y-33979127D01*
X109058095Y-34505317D02*
X109300952Y-34829127D01*
X109300952Y-34262460D02*
X108977142Y-34586270D01*
X109624761Y-34788651D02*
X109705714Y-34829127D01*
X109705714Y-34829127D02*
X109867618Y-34829127D01*
X109867618Y-34829127D02*
X109948571Y-34788651D01*
X109948571Y-34788651D02*
X109989047Y-34707698D01*
X109989047Y-34707698D02*
X109989047Y-34667222D01*
X109989047Y-34667222D02*
X109948571Y-34586270D01*
X109948571Y-34586270D02*
X109867618Y-34545793D01*
X109867618Y-34545793D02*
X109746190Y-34545793D01*
X109746190Y-34545793D02*
X109665237Y-34505317D01*
X109665237Y-34505317D02*
X109624761Y-34424365D01*
X109624761Y-34424365D02*
X109624761Y-34383889D01*
X109624761Y-34383889D02*
X109665237Y-34302936D01*
X109665237Y-34302936D02*
X109746190Y-34262460D01*
X109746190Y-34262460D02*
X109867618Y-34262460D01*
X109867618Y-34262460D02*
X109948571Y-34302936D01*
X110960475Y-33938651D02*
X110231904Y-35031508D01*
X111608094Y-34262460D02*
X111608094Y-34829127D01*
X111243808Y-34262460D02*
X111243808Y-34707698D01*
X111243808Y-34707698D02*
X111284285Y-34788651D01*
X111284285Y-34788651D02*
X111365237Y-34829127D01*
X111365237Y-34829127D02*
X111486666Y-34829127D01*
X111486666Y-34829127D02*
X111567618Y-34788651D01*
X111567618Y-34788651D02*
X111608094Y-34748174D01*
X112619999Y-33938651D02*
X111891428Y-35031508D01*
X112862856Y-34788651D02*
X112943809Y-34829127D01*
X112943809Y-34829127D02*
X113105713Y-34829127D01*
X113105713Y-34829127D02*
X113186666Y-34788651D01*
X113186666Y-34788651D02*
X113227142Y-34707698D01*
X113227142Y-34707698D02*
X113227142Y-34667222D01*
X113227142Y-34667222D02*
X113186666Y-34586270D01*
X113186666Y-34586270D02*
X113105713Y-34545793D01*
X113105713Y-34545793D02*
X112984285Y-34545793D01*
X112984285Y-34545793D02*
X112903332Y-34505317D01*
X112903332Y-34505317D02*
X112862856Y-34424365D01*
X112862856Y-34424365D02*
X112862856Y-34383889D01*
X112862856Y-34383889D02*
X112903332Y-34302936D01*
X112903332Y-34302936D02*
X112984285Y-34262460D01*
X112984285Y-34262460D02*
X113105713Y-34262460D01*
X113105713Y-34262460D02*
X113186666Y-34302936D01*
X113955713Y-34829127D02*
X113955713Y-33979127D01*
X113955713Y-34788651D02*
X113874761Y-34829127D01*
X113874761Y-34829127D02*
X113712856Y-34829127D01*
X113712856Y-34829127D02*
X113631904Y-34788651D01*
X113631904Y-34788651D02*
X113591427Y-34748174D01*
X113591427Y-34748174D02*
X113550951Y-34667222D01*
X113550951Y-34667222D02*
X113550951Y-34424365D01*
X113550951Y-34424365D02*
X113591427Y-34343412D01*
X113591427Y-34343412D02*
X113631904Y-34302936D01*
X113631904Y-34302936D02*
X113712856Y-34262460D01*
X113712856Y-34262460D02*
X113874761Y-34262460D01*
X113874761Y-34262460D02*
X113955713Y-34302936D01*
X114360475Y-34829127D02*
X114360475Y-34262460D01*
X114360475Y-34424365D02*
X114400952Y-34343412D01*
X114400952Y-34343412D02*
X114441428Y-34302936D01*
X114441428Y-34302936D02*
X114522380Y-34262460D01*
X114522380Y-34262460D02*
X114603333Y-34262460D01*
X114886665Y-34829127D02*
X114886665Y-34262460D01*
X114886665Y-34424365D02*
X114927142Y-34343412D01*
X114927142Y-34343412D02*
X114967618Y-34302936D01*
X114967618Y-34302936D02*
X115048570Y-34262460D01*
X115048570Y-34262460D02*
X115129523Y-34262460D01*
D10*
X104442766Y-41007533D02*
X104476100Y-41040866D01*
X104476100Y-41040866D02*
X104509433Y-41140866D01*
X104509433Y-41140866D02*
X104509433Y-41207533D01*
X104509433Y-41207533D02*
X104476100Y-41307533D01*
X104476100Y-41307533D02*
X104409433Y-41374200D01*
X104409433Y-41374200D02*
X104342766Y-41407533D01*
X104342766Y-41407533D02*
X104209433Y-41440866D01*
X104209433Y-41440866D02*
X104109433Y-41440866D01*
X104109433Y-41440866D02*
X103976100Y-41407533D01*
X103976100Y-41407533D02*
X103909433Y-41374200D01*
X103909433Y-41374200D02*
X103842766Y-41307533D01*
X103842766Y-41307533D02*
X103809433Y-41207533D01*
X103809433Y-41207533D02*
X103809433Y-41140866D01*
X103809433Y-41140866D02*
X103842766Y-41040866D01*
X103842766Y-41040866D02*
X103876100Y-41007533D01*
X109036666Y-57468633D02*
X109036666Y-56768633D01*
X109036666Y-56768633D02*
X109203333Y-56768633D01*
X109203333Y-56768633D02*
X109303333Y-56801966D01*
X109303333Y-56801966D02*
X109370000Y-56868633D01*
X109370000Y-56868633D02*
X109403333Y-56935300D01*
X109403333Y-56935300D02*
X109436666Y-57068633D01*
X109436666Y-57068633D02*
X109436666Y-57168633D01*
X109436666Y-57168633D02*
X109403333Y-57301966D01*
X109403333Y-57301966D02*
X109370000Y-57368633D01*
X109370000Y-57368633D02*
X109303333Y-57435300D01*
X109303333Y-57435300D02*
X109203333Y-57468633D01*
X109203333Y-57468633D02*
X109036666Y-57468633D01*
X106414867Y-56794033D02*
X106081533Y-56794033D01*
X106081533Y-56794033D02*
X106048200Y-57127366D01*
X106048200Y-57127366D02*
X106081533Y-57094033D01*
X106081533Y-57094033D02*
X106148200Y-57060700D01*
X106148200Y-57060700D02*
X106314867Y-57060700D01*
X106314867Y-57060700D02*
X106381533Y-57094033D01*
X106381533Y-57094033D02*
X106414867Y-57127366D01*
X106414867Y-57127366D02*
X106448200Y-57194033D01*
X106448200Y-57194033D02*
X106448200Y-57360700D01*
X106448200Y-57360700D02*
X106414867Y-57427366D01*
X106414867Y-57427366D02*
X106381533Y-57460700D01*
X106381533Y-57460700D02*
X106314867Y-57494033D01*
X106314867Y-57494033D02*
X106148200Y-57494033D01*
X106148200Y-57494033D02*
X106081533Y-57460700D01*
X106081533Y-57460700D02*
X106048200Y-57427366D01*
X106642666Y-37513766D02*
X106609333Y-37547100D01*
X106609333Y-37547100D02*
X106509333Y-37580433D01*
X106509333Y-37580433D02*
X106442666Y-37580433D01*
X106442666Y-37580433D02*
X106342666Y-37547100D01*
X106342666Y-37547100D02*
X106276000Y-37480433D01*
X106276000Y-37480433D02*
X106242666Y-37413766D01*
X106242666Y-37413766D02*
X106209333Y-37280433D01*
X106209333Y-37280433D02*
X106209333Y-37180433D01*
X106209333Y-37180433D02*
X106242666Y-37047100D01*
X106242666Y-37047100D02*
X106276000Y-36980433D01*
X106276000Y-36980433D02*
X106342666Y-36913766D01*
X106342666Y-36913766D02*
X106442666Y-36880433D01*
X106442666Y-36880433D02*
X106509333Y-36880433D01*
X106509333Y-36880433D02*
X106609333Y-36913766D01*
X106609333Y-36913766D02*
X106642666Y-36947100D01*
X104442766Y-54698133D02*
X104476100Y-54731466D01*
X104476100Y-54731466D02*
X104509433Y-54831466D01*
X104509433Y-54831466D02*
X104509433Y-54898133D01*
X104509433Y-54898133D02*
X104476100Y-54998133D01*
X104476100Y-54998133D02*
X104409433Y-55064800D01*
X104409433Y-55064800D02*
X104342766Y-55098133D01*
X104342766Y-55098133D02*
X104209433Y-55131466D01*
X104209433Y-55131466D02*
X104109433Y-55131466D01*
X104109433Y-55131466D02*
X103976100Y-55098133D01*
X103976100Y-55098133D02*
X103909433Y-55064800D01*
X103909433Y-55064800D02*
X103842766Y-54998133D01*
X103842766Y-54998133D02*
X103809433Y-54898133D01*
X103809433Y-54898133D02*
X103809433Y-54831466D01*
X103809433Y-54831466D02*
X103842766Y-54731466D01*
X103842766Y-54731466D02*
X103876100Y-54698133D01*
X111605566Y-39686733D02*
X111638900Y-39720066D01*
X111638900Y-39720066D02*
X111672233Y-39820066D01*
X111672233Y-39820066D02*
X111672233Y-39886733D01*
X111672233Y-39886733D02*
X111638900Y-39986733D01*
X111638900Y-39986733D02*
X111572233Y-40053400D01*
X111572233Y-40053400D02*
X111505566Y-40086733D01*
X111505566Y-40086733D02*
X111372233Y-40120066D01*
X111372233Y-40120066D02*
X111272233Y-40120066D01*
X111272233Y-40120066D02*
X111138900Y-40086733D01*
X111138900Y-40086733D02*
X111072233Y-40053400D01*
X111072233Y-40053400D02*
X111005566Y-39986733D01*
X111005566Y-39986733D02*
X110972233Y-39886733D01*
X110972233Y-39886733D02*
X110972233Y-39820066D01*
X110972233Y-39820066D02*
X111005566Y-39720066D01*
X111005566Y-39720066D02*
X111038900Y-39686733D01*
X104487933Y-44100300D02*
X104587933Y-44133633D01*
X104587933Y-44133633D02*
X104754600Y-44133633D01*
X104754600Y-44133633D02*
X104821266Y-44100300D01*
X104821266Y-44100300D02*
X104854600Y-44066966D01*
X104854600Y-44066966D02*
X104887933Y-44000300D01*
X104887933Y-44000300D02*
X104887933Y-43933633D01*
X104887933Y-43933633D02*
X104854600Y-43866966D01*
X104854600Y-43866966D02*
X104821266Y-43833633D01*
X104821266Y-43833633D02*
X104754600Y-43800300D01*
X104754600Y-43800300D02*
X104621266Y-43766966D01*
X104621266Y-43766966D02*
X104554600Y-43733633D01*
X104554600Y-43733633D02*
X104521266Y-43700300D01*
X104521266Y-43700300D02*
X104487933Y-43633633D01*
X104487933Y-43633633D02*
X104487933Y-43566966D01*
X104487933Y-43566966D02*
X104521266Y-43500300D01*
X104521266Y-43500300D02*
X104554600Y-43466966D01*
X104554600Y-43466966D02*
X104621266Y-43433633D01*
X104621266Y-43433633D02*
X104787933Y-43433633D01*
X104787933Y-43433633D02*
X104887933Y-43466966D01*
X105087933Y-43433633D02*
X105487933Y-43433633D01*
X105287933Y-44133633D02*
X105287933Y-43433633D01*
X105721266Y-44133633D02*
X105721266Y-43433633D01*
X105721266Y-43433633D02*
X105954600Y-43933633D01*
X105954600Y-43933633D02*
X106187933Y-43433633D01*
X106187933Y-43433633D02*
X106187933Y-44133633D01*
X106454600Y-43433633D02*
X106887933Y-43433633D01*
X106887933Y-43433633D02*
X106654600Y-43700300D01*
X106654600Y-43700300D02*
X106754600Y-43700300D01*
X106754600Y-43700300D02*
X106821266Y-43733633D01*
X106821266Y-43733633D02*
X106854600Y-43766966D01*
X106854600Y-43766966D02*
X106887933Y-43833633D01*
X106887933Y-43833633D02*
X106887933Y-44000300D01*
X106887933Y-44000300D02*
X106854600Y-44066966D01*
X106854600Y-44066966D02*
X106821266Y-44100300D01*
X106821266Y-44100300D02*
X106754600Y-44133633D01*
X106754600Y-44133633D02*
X106554600Y-44133633D01*
X106554600Y-44133633D02*
X106487933Y-44100300D01*
X106487933Y-44100300D02*
X106454600Y-44066966D01*
X107154600Y-43500300D02*
X107187933Y-43466966D01*
X107187933Y-43466966D02*
X107254600Y-43433633D01*
X107254600Y-43433633D02*
X107421267Y-43433633D01*
X107421267Y-43433633D02*
X107487933Y-43466966D01*
X107487933Y-43466966D02*
X107521267Y-43500300D01*
X107521267Y-43500300D02*
X107554600Y-43566966D01*
X107554600Y-43566966D02*
X107554600Y-43633633D01*
X107554600Y-43633633D02*
X107521267Y-43733633D01*
X107521267Y-43733633D02*
X107121267Y-44133633D01*
X107121267Y-44133633D02*
X107554600Y-44133633D01*
X108087934Y-43766966D02*
X107854600Y-43766966D01*
X107854600Y-44133633D02*
X107854600Y-43433633D01*
X107854600Y-43433633D02*
X108187934Y-43433633D01*
X108754600Y-43666966D02*
X108754600Y-44133633D01*
X108587934Y-43400300D02*
X108421267Y-43900300D01*
X108421267Y-43900300D02*
X108854600Y-43900300D01*
X110732066Y-37224833D02*
X110498733Y-36891500D01*
X110332066Y-37224833D02*
X110332066Y-36524833D01*
X110332066Y-36524833D02*
X110598733Y-36524833D01*
X110598733Y-36524833D02*
X110665400Y-36558166D01*
X110665400Y-36558166D02*
X110698733Y-36591500D01*
X110698733Y-36591500D02*
X110732066Y-36658166D01*
X110732066Y-36658166D02*
X110732066Y-36758166D01*
X110732066Y-36758166D02*
X110698733Y-36824833D01*
X110698733Y-36824833D02*
X110665400Y-36858166D01*
X110665400Y-36858166D02*
X110598733Y-36891500D01*
X110598733Y-36891500D02*
X110332066Y-36891500D01*
X112433866Y-57468633D02*
X112200533Y-57135300D01*
X112033866Y-57468633D02*
X112033866Y-56768633D01*
X112033866Y-56768633D02*
X112300533Y-56768633D01*
X112300533Y-56768633D02*
X112367200Y-56801966D01*
X112367200Y-56801966D02*
X112400533Y-56835300D01*
X112400533Y-56835300D02*
X112433866Y-56901966D01*
X112433866Y-56901966D02*
X112433866Y-57001966D01*
X112433866Y-57001966D02*
X112400533Y-57068633D01*
X112400533Y-57068633D02*
X112367200Y-57101966D01*
X112367200Y-57101966D02*
X112300533Y-57135300D01*
X112300533Y-57135300D02*
X112033866Y-57135300D01*
X105941366Y-39712133D02*
X105974700Y-39745466D01*
X105974700Y-39745466D02*
X106008033Y-39845466D01*
X106008033Y-39845466D02*
X106008033Y-39912133D01*
X106008033Y-39912133D02*
X105974700Y-40012133D01*
X105974700Y-40012133D02*
X105908033Y-40078800D01*
X105908033Y-40078800D02*
X105841366Y-40112133D01*
X105841366Y-40112133D02*
X105708033Y-40145466D01*
X105708033Y-40145466D02*
X105608033Y-40145466D01*
X105608033Y-40145466D02*
X105474700Y-40112133D01*
X105474700Y-40112133D02*
X105408033Y-40078800D01*
X105408033Y-40078800D02*
X105341366Y-40012133D01*
X105341366Y-40012133D02*
X105308033Y-39912133D01*
X105308033Y-39912133D02*
X105308033Y-39845466D01*
X105308033Y-39845466D02*
X105341366Y-39745466D01*
X105341366Y-39745466D02*
X105374700Y-39712133D01*
D12*
X105862857Y-33605000D02*
X106005714Y-33652619D01*
X106005714Y-33652619D02*
X106243809Y-33652619D01*
X106243809Y-33652619D02*
X106339047Y-33605000D01*
X106339047Y-33605000D02*
X106386666Y-33557380D01*
X106386666Y-33557380D02*
X106434285Y-33462142D01*
X106434285Y-33462142D02*
X106434285Y-33366904D01*
X106434285Y-33366904D02*
X106386666Y-33271666D01*
X106386666Y-33271666D02*
X106339047Y-33224047D01*
X106339047Y-33224047D02*
X106243809Y-33176428D01*
X106243809Y-33176428D02*
X106053333Y-33128809D01*
X106053333Y-33128809D02*
X105958095Y-33081190D01*
X105958095Y-33081190D02*
X105910476Y-33033571D01*
X105910476Y-33033571D02*
X105862857Y-32938333D01*
X105862857Y-32938333D02*
X105862857Y-32843095D01*
X105862857Y-32843095D02*
X105910476Y-32747857D01*
X105910476Y-32747857D02*
X105958095Y-32700238D01*
X105958095Y-32700238D02*
X106053333Y-32652619D01*
X106053333Y-32652619D02*
X106291428Y-32652619D01*
X106291428Y-32652619D02*
X106434285Y-32700238D01*
X106862857Y-33652619D02*
X106862857Y-32652619D01*
X106862857Y-32652619D02*
X107100952Y-32652619D01*
X107100952Y-32652619D02*
X107243809Y-32700238D01*
X107243809Y-32700238D02*
X107339047Y-32795476D01*
X107339047Y-32795476D02*
X107386666Y-32890714D01*
X107386666Y-32890714D02*
X107434285Y-33081190D01*
X107434285Y-33081190D02*
X107434285Y-33224047D01*
X107434285Y-33224047D02*
X107386666Y-33414523D01*
X107386666Y-33414523D02*
X107339047Y-33509761D01*
X107339047Y-33509761D02*
X107243809Y-33605000D01*
X107243809Y-33605000D02*
X107100952Y-33652619D01*
X107100952Y-33652619D02*
X106862857Y-33652619D01*
X108434285Y-33652619D02*
X108100952Y-33176428D01*
X107862857Y-33652619D02*
X107862857Y-32652619D01*
X107862857Y-32652619D02*
X108243809Y-32652619D01*
X108243809Y-32652619D02*
X108339047Y-32700238D01*
X108339047Y-32700238D02*
X108386666Y-32747857D01*
X108386666Y-32747857D02*
X108434285Y-32843095D01*
X108434285Y-32843095D02*
X108434285Y-32985952D01*
X108434285Y-32985952D02*
X108386666Y-33081190D01*
X108386666Y-33081190D02*
X108339047Y-33128809D01*
X108339047Y-33128809D02*
X108243809Y-33176428D01*
X108243809Y-33176428D02*
X107862857Y-33176428D01*
X109434285Y-33652619D02*
X109100952Y-33176428D01*
X108862857Y-33652619D02*
X108862857Y-32652619D01*
X108862857Y-32652619D02*
X109243809Y-32652619D01*
X109243809Y-32652619D02*
X109339047Y-32700238D01*
X109339047Y-32700238D02*
X109386666Y-32747857D01*
X109386666Y-32747857D02*
X109434285Y-32843095D01*
X109434285Y-32843095D02*
X109434285Y-32985952D01*
X109434285Y-32985952D02*
X109386666Y-33081190D01*
X109386666Y-33081190D02*
X109339047Y-33128809D01*
X109339047Y-33128809D02*
X109243809Y-33176428D01*
X109243809Y-33176428D02*
X108862857Y-33176428D01*
X109862857Y-33271666D02*
X110624762Y-33271666D01*
X111053333Y-32747857D02*
X111100952Y-32700238D01*
X111100952Y-32700238D02*
X111196190Y-32652619D01*
X111196190Y-32652619D02*
X111434285Y-32652619D01*
X111434285Y-32652619D02*
X111529523Y-32700238D01*
X111529523Y-32700238D02*
X111577142Y-32747857D01*
X111577142Y-32747857D02*
X111624761Y-32843095D01*
X111624761Y-32843095D02*
X111624761Y-32938333D01*
X111624761Y-32938333D02*
X111577142Y-33081190D01*
X111577142Y-33081190D02*
X111005714Y-33652619D01*
X111005714Y-33652619D02*
X111624761Y-33652619D01*
X112196190Y-33081190D02*
X112100952Y-33033571D01*
X112100952Y-33033571D02*
X112053333Y-32985952D01*
X112053333Y-32985952D02*
X112005714Y-32890714D01*
X112005714Y-32890714D02*
X112005714Y-32843095D01*
X112005714Y-32843095D02*
X112053333Y-32747857D01*
X112053333Y-32747857D02*
X112100952Y-32700238D01*
X112100952Y-32700238D02*
X112196190Y-32652619D01*
X112196190Y-32652619D02*
X112386666Y-32652619D01*
X112386666Y-32652619D02*
X112481904Y-32700238D01*
X112481904Y-32700238D02*
X112529523Y-32747857D01*
X112529523Y-32747857D02*
X112577142Y-32843095D01*
X112577142Y-32843095D02*
X112577142Y-32890714D01*
X112577142Y-32890714D02*
X112529523Y-32985952D01*
X112529523Y-32985952D02*
X112481904Y-33033571D01*
X112481904Y-33033571D02*
X112386666Y-33081190D01*
X112386666Y-33081190D02*
X112196190Y-33081190D01*
X112196190Y-33081190D02*
X112100952Y-33128809D01*
X112100952Y-33128809D02*
X112053333Y-33176428D01*
X112053333Y-33176428D02*
X112005714Y-33271666D01*
X112005714Y-33271666D02*
X112005714Y-33462142D01*
X112005714Y-33462142D02*
X112053333Y-33557380D01*
X112053333Y-33557380D02*
X112100952Y-33605000D01*
X112100952Y-33605000D02*
X112196190Y-33652619D01*
X112196190Y-33652619D02*
X112386666Y-33652619D01*
X112386666Y-33652619D02*
X112481904Y-33605000D01*
X112481904Y-33605000D02*
X112529523Y-33557380D01*
X112529523Y-33557380D02*
X112577142Y-33462142D01*
X112577142Y-33462142D02*
X112577142Y-33271666D01*
X112577142Y-33271666D02*
X112529523Y-33176428D01*
X112529523Y-33176428D02*
X112481904Y-33128809D01*
X112481904Y-33128809D02*
X112386666Y-33081190D01*
D10*
X114577366Y-41007533D02*
X114610700Y-41040866D01*
X114610700Y-41040866D02*
X114644033Y-41140866D01*
X114644033Y-41140866D02*
X114644033Y-41207533D01*
X114644033Y-41207533D02*
X114610700Y-41307533D01*
X114610700Y-41307533D02*
X114544033Y-41374200D01*
X114544033Y-41374200D02*
X114477366Y-41407533D01*
X114477366Y-41407533D02*
X114344033Y-41440866D01*
X114344033Y-41440866D02*
X114244033Y-41440866D01*
X114244033Y-41440866D02*
X114110700Y-41407533D01*
X114110700Y-41407533D02*
X114044033Y-41374200D01*
X114044033Y-41374200D02*
X113977366Y-41307533D01*
X113977366Y-41307533D02*
X113944033Y-41207533D01*
X113944033Y-41207533D02*
X113944033Y-41140866D01*
X113944033Y-41140866D02*
X113977366Y-41040866D01*
X113977366Y-41040866D02*
X114010700Y-41007533D01*
X108194100Y-40874800D02*
X108160766Y-40841467D01*
X108160766Y-40841467D02*
X108127433Y-40774800D01*
X108127433Y-40774800D02*
X108127433Y-40608134D01*
X108127433Y-40608134D02*
X108160766Y-40541467D01*
X108160766Y-40541467D02*
X108194100Y-40508134D01*
X108194100Y-40508134D02*
X108260766Y-40474800D01*
X108260766Y-40474800D02*
X108327433Y-40474800D01*
X108327433Y-40474800D02*
X108427433Y-40508134D01*
X108427433Y-40508134D02*
X108827433Y-40908134D01*
X108827433Y-40908134D02*
X108827433Y-40474800D01*
X108827433Y-39808133D02*
X108827433Y-40208133D01*
X108827433Y-40008133D02*
X108127433Y-40008133D01*
X108127433Y-40008133D02*
X108227433Y-40074800D01*
X108227433Y-40074800D02*
X108294100Y-40141467D01*
X108294100Y-40141467D02*
X108327433Y-40208133D01*
X108827433Y-39141466D02*
X108827433Y-39541466D01*
X108827433Y-39341466D02*
X108127433Y-39341466D01*
X108127433Y-39341466D02*
X108227433Y-39408133D01*
X108227433Y-39408133D02*
X108294100Y-39474800D01*
X108294100Y-39474800D02*
X108327433Y-39541466D01*
X108194100Y-38874799D02*
X108160766Y-38841466D01*
X108160766Y-38841466D02*
X108127433Y-38774799D01*
X108127433Y-38774799D02*
X108127433Y-38608133D01*
X108127433Y-38608133D02*
X108160766Y-38541466D01*
X108160766Y-38541466D02*
X108194100Y-38508133D01*
X108194100Y-38508133D02*
X108260766Y-38474799D01*
X108260766Y-38474799D02*
X108327433Y-38474799D01*
X108327433Y-38474799D02*
X108427433Y-38508133D01*
X108427433Y-38508133D02*
X108827433Y-38908133D01*
X108827433Y-38908133D02*
X108827433Y-38474799D01*
X114551966Y-54672733D02*
X114585300Y-54706066D01*
X114585300Y-54706066D02*
X114618633Y-54806066D01*
X114618633Y-54806066D02*
X114618633Y-54872733D01*
X114618633Y-54872733D02*
X114585300Y-54972733D01*
X114585300Y-54972733D02*
X114518633Y-55039400D01*
X114518633Y-55039400D02*
X114451966Y-55072733D01*
X114451966Y-55072733D02*
X114318633Y-55106066D01*
X114318633Y-55106066D02*
X114218633Y-55106066D01*
X114218633Y-55106066D02*
X114085300Y-55072733D01*
X114085300Y-55072733D02*
X114018633Y-55039400D01*
X114018633Y-55039400D02*
X113951966Y-54972733D01*
X113951966Y-54972733D02*
X113918633Y-54872733D01*
X113918633Y-54872733D02*
X113918633Y-54806066D01*
X113918633Y-54806066D02*
X113951966Y-54706066D01*
X113951966Y-54706066D02*
X113985300Y-54672733D01*
X113078766Y-39686733D02*
X113112100Y-39720066D01*
X113112100Y-39720066D02*
X113145433Y-39820066D01*
X113145433Y-39820066D02*
X113145433Y-39886733D01*
X113145433Y-39886733D02*
X113112100Y-39986733D01*
X113112100Y-39986733D02*
X113045433Y-40053400D01*
X113045433Y-40053400D02*
X112978766Y-40086733D01*
X112978766Y-40086733D02*
X112845433Y-40120066D01*
X112845433Y-40120066D02*
X112745433Y-40120066D01*
X112745433Y-40120066D02*
X112612100Y-40086733D01*
X112612100Y-40086733D02*
X112545433Y-40053400D01*
X112545433Y-40053400D02*
X112478766Y-39986733D01*
X112478766Y-39986733D02*
X112445433Y-39886733D01*
X112445433Y-39886733D02*
X112445433Y-39820066D01*
X112445433Y-39820066D02*
X112478766Y-39720066D01*
X112478766Y-39720066D02*
X112512100Y-39686733D01*
X112020333Y-55503366D02*
X112020333Y-55970033D01*
X111853667Y-55236700D02*
X111687000Y-55736700D01*
X111687000Y-55736700D02*
X112120333Y-55736700D01*
D13*
%TO.C,R3*%
X112454458Y-56602100D02*
X111979942Y-56602100D01*
X112454458Y-57647100D02*
X111979942Y-57647100D01*
%TO.C,C1*%
X106566580Y-36726400D02*
X106285420Y-36726400D01*
X106566580Y-37746400D02*
X106285420Y-37746400D01*
%TO.C,C3*%
X112291400Y-40043980D02*
X112291400Y-39762820D01*
X113311400Y-40043980D02*
X113311400Y-39762820D01*
%TO.C,C2*%
X110792800Y-40043980D02*
X110792800Y-39762820D01*
X111812800Y-40043980D02*
X111812800Y-39762820D01*
%TO.C,U3*%
X108488900Y-38150400D02*
X107688900Y-38150400D01*
X108488900Y-38150400D02*
X109288900Y-38150400D01*
X108488900Y-41270400D02*
X107688900Y-41270400D01*
X108488900Y-41270400D02*
X109288900Y-41270400D01*
X107188900Y-38200400D02*
X106948900Y-37870400D01*
X107428900Y-37870400D01*
X107188900Y-38200400D01*
G36*
X107188900Y-38200400D02*
G01*
X106948900Y-37870400D01*
X107428900Y-37870400D01*
X107188900Y-38200400D01*
G37*
%TO.C,TP1*%
X108585000Y-54974800D02*
X109855000Y-54974800D01*
X108585000Y-56244800D02*
X108585000Y-54974800D01*
X109855000Y-54974800D02*
X109855000Y-56244800D01*
X109855000Y-56244800D02*
X108585000Y-56244800D01*
%TO.C,RC5*%
X106388780Y-56640000D02*
X106107620Y-56640000D01*
X106388780Y-57660000D02*
X106107620Y-57660000D01*
%TO.C,R2*%
X113275342Y-36358300D02*
X113749858Y-36358300D01*
X113275342Y-37403300D02*
X113749858Y-37403300D01*
%TO.C,C7*%
X103655400Y-41364780D02*
X103655400Y-41083620D01*
X104675400Y-41364780D02*
X104675400Y-41083620D01*
%TO.C,C6*%
X113764600Y-54748820D02*
X113764600Y-55029980D01*
X114784600Y-54748820D02*
X114784600Y-55029980D01*
%TO.C,J2*%
X102870000Y-25340000D02*
X102870000Y-30540000D01*
X105350000Y-25340000D02*
X105350000Y-30540000D01*
X107950000Y-25349200D02*
X107950000Y-30540000D01*
X110490000Y-25340000D02*
X110490000Y-30530800D01*
X113030000Y-25340000D02*
X102870000Y-25340000D01*
X113030000Y-25340000D02*
X113030000Y-30530800D01*
X113030000Y-30530800D02*
X102870000Y-30540000D01*
%TO.C,RC4*%
X111746420Y-55090600D02*
X112027580Y-55090600D01*
X111746420Y-56110600D02*
X112027580Y-56110600D01*
%TO.C,U1*%
X104110000Y-43023000D02*
X105060000Y-43023000D01*
X104110000Y-43973000D02*
X104110000Y-43023000D01*
X104110000Y-52293000D02*
X104110000Y-53243000D01*
X104110000Y-53243000D02*
X105060000Y-53243000D01*
X114330000Y-43023000D02*
X113380000Y-43023000D01*
X114330000Y-43973000D02*
X114330000Y-43023000D01*
X114330000Y-52293000D02*
X114330000Y-53243000D01*
X114330000Y-53243000D02*
X113380000Y-53243000D01*
D10*
X114330000Y-43973000D02*
X113380000Y-43023000D01*
X114330000Y-43023000D01*
X114330000Y-43973000D01*
G36*
X114330000Y-43973000D02*
G01*
X113380000Y-43023000D01*
X114330000Y-43023000D01*
X114330000Y-43973000D01*
G37*
D13*
%TO.C,C4*%
X103655400Y-54774220D02*
X103655400Y-55055380D01*
X104675400Y-54774220D02*
X104675400Y-55055380D01*
%TO.C,C5*%
X105154000Y-40043980D02*
X105154000Y-39762820D01*
X106174000Y-40043980D02*
X106174000Y-39762820D01*
%TO.C,C9*%
X106412420Y-55090600D02*
X106693580Y-55090600D01*
X106412420Y-56110600D02*
X106693580Y-56110600D01*
%TO.C,D1*%
X107735000Y-56389600D02*
X107735000Y-57859600D01*
X107735000Y-57859600D02*
X110020000Y-57859600D01*
X110020000Y-56389600D02*
X107735000Y-56389600D01*
%TO.C,C8*%
X113790000Y-41364780D02*
X113790000Y-41083620D01*
X114810000Y-41364780D02*
X114810000Y-41083620D01*
%TO.C,R1*%
X110278142Y-36358300D02*
X110752658Y-36358300D01*
X110278142Y-37403300D02*
X110752658Y-37403300D01*
%TD*%
M02*
