M48
METRIC,TZ
T1C0.305
T2C0.457
T3C1.000
%
G90
G05
T1
X102409Y-30255
X102565Y-38202
X102802Y-43297
X103327Y-38202
X103607Y-57480
X104775Y-47879
X105106Y-48700
X105580Y-46744
X105842Y-47915
X105867Y-48740
X105893Y-52476
X106357Y-51765
X106662Y-51067
X107324Y-46117
X107848Y-48439
X107848Y-47344
X108259Y-45113
X108678Y-47329
X108805Y-45644
X108948Y-51368
X109245Y-44404
X109388Y-45153
X109541Y-50453
X109600Y-43730
X109800Y-46512
X109912Y-31064
X109931Y-33617
X109931Y-35949
X109938Y-31845
X110134Y-48776
X110209Y-45085
X110236Y-32918
X110354Y-34251
X110363Y-47570
X110674Y-31064
X110718Y-32259
X110913Y-50555
X110973Y-49454
X111463Y-31064
X111971Y-50013
X112190Y-43688
X112190Y-44450
X112196Y-48704
X112237Y-31084
X112365Y-52396
X112999Y-31064
X113091Y-49748
X113140Y-48139
X113157Y-52375
X113259Y-47295
X113335Y-35865
X113593Y-48761
X113661Y-46610
X114325Y-42951
X116230Y-45720
T2
X102794Y-40665
X102819Y-58191
X103810Y-52737
X103962Y-39116
X104191Y-35789
X105004Y-44856
X105588Y-58420
X107201Y-35966
X107630Y-44449
X107925Y-58420
X110719Y-58420
X112618Y-58389
X114021Y-52934
X114351Y-38583
X114757Y-57150
X115570Y-25857
X115722Y-40615
T3
X101600Y-26670
X101600Y-29210
X101600Y-31750
X101600Y-34290
X101600Y-36830
X101600Y-39370
X101600Y-41910
X101600Y-44450
X101600Y-46990
X101600Y-49530
X101600Y-52070
X101600Y-54610
X101600Y-57150
X101600Y-59690
X104140Y-26670
X104140Y-29210
X104140Y-59690
X106680Y-26670
X106680Y-29210
X106680Y-59690
X109220Y-26670
X109220Y-29210
X109220Y-59690
X111760Y-26670
X111760Y-29210
X111760Y-59690
X114300Y-26670
X114300Y-29210
X114300Y-59690
X116840Y-26670
X116840Y-29210
X116840Y-31750
X116840Y-34290
X116840Y-36830
X116840Y-39370
X116840Y-41910
X116840Y-44450
X116840Y-46990
X116840Y-49530
X116840Y-52070
X116840Y-54610
X116840Y-57150
X116840Y-59690
M30
