%TF.GenerationSoftware,KiCad,Pcbnew,8.0.5*%
%TF.CreationDate,2025-07-05T10:51:28+01:00*%
%TF.ProjectId,sdrr 28 rev a,73647272-2032-4382-9072-657620612e6b,rev?*%
%TF.SameCoordinates,Original*%
%TF.FileFunction,Soldermask,Bot*%
%TF.FilePolarity,Negative*%
%FSLAX46Y46*%
G04 Gerber Fmt 4.6, Leading zero omitted, Abs format (unit mm)*
G04 Created by KiCad (PCBNEW 8.0.5) date 2025-07-05 10:51:28*
%MOMM*%
%LPD*%
G01*
G04 APERTURE LIST*
%ADD10C,1.700000*%
%ADD11O,1.700000X1.700000*%
%ADD12R,1.700000X1.700000*%
G04 APERTURE END LIST*
D10*
%TO.C,J2*%
X114300000Y-26670000D03*
D11*
X114300000Y-29210000D03*
X111760000Y-26670000D03*
X111760000Y-29210000D03*
X109220000Y-26670000D03*
X109220000Y-29210000D03*
X106680000Y-26670000D03*
X106680000Y-29210000D03*
X104140000Y-26670000D03*
X104140000Y-29210000D03*
%TD*%
D12*
%TO.C,J1*%
X104140000Y-59690000D03*
D11*
X106680000Y-59690000D03*
X109220000Y-59690000D03*
X111760000Y-59690000D03*
X114300000Y-59690000D03*
%TD*%
D12*
%TO.C,J3*%
X101600000Y-26670000D03*
D11*
X101600000Y-29210000D03*
X101600000Y-31750000D03*
X101600000Y-34290000D03*
X101600000Y-36830000D03*
X101600000Y-39370000D03*
X101600000Y-41910000D03*
X101600000Y-44450000D03*
X101600000Y-46990000D03*
X101600000Y-49530000D03*
X101600000Y-52070000D03*
X101600000Y-54610000D03*
X101600000Y-57150000D03*
X101600000Y-59690000D03*
%TD*%
%TO.C,J4*%
X116840000Y-59690000D03*
X116840000Y-57150000D03*
X116840000Y-54610000D03*
X116840000Y-52070000D03*
X116840000Y-49530000D03*
X116840000Y-46990000D03*
X116840000Y-44450000D03*
X116840000Y-41910000D03*
X116840000Y-39370000D03*
X116840000Y-36830000D03*
X116840000Y-34290000D03*
X116840000Y-31750000D03*
X116840000Y-29210000D03*
X116840000Y-26670000D03*
%TD*%
M02*
